<?xml version="1.0" encoding="utf-8"?>
<!-- Generator: Adobe Illustrator 27.5.0, SVG Export Plug-In . SVG Version: 6.00 Build 0)  -->
<svg version="1.1" xmlns="http://www.w3.org/2000/svg" xmlns:xlink="http://www.w3.org/1999/xlink" x="0px" y="0px"
	 viewBox="0 0 500 500" style="enable-background:new 0 0 500 500;" xml:space="preserve">
<g id="Floor">
	<path id="Floor_00000011731261919340198130000000968851074329278592_" style="fill:#F5F5F5;" d="M86.603,249.433
		c-90.239,52.1-90.237,136.57,0.005,188.669c90.242,52.1,236.55,52.1,326.789,0c90.239-52.1,90.237-136.57-0.005-188.669
		C323.15,197.333,176.842,197.333,86.603,249.433z"/>
</g>
<g id="Shadow_00000081634411891183737590000007290591527067229102_">
	<path id="Shadow" style="fill:#E0E0E0;" d="M279.331,445.658c-3.327,0-6.377-0.622-8.818-1.798L98.756,360.925
		c-1.469-0.702-2.673-1.624-3.462-2.659l0,0c-1.301-1.707-1.424-4.036-0.308-5.87l0,0c0.695-1.141,1.857-2.201,3.362-3.062
		l124.045-71.617c2.368-1.38,5.363-2.116,8.64-2.116c3.766,0,7.437,1.035,10.072,2.839l142.568,97.977
		c2.59,1.763,4.012,4.2,3.879,6.672c-0.082,2.377-1.638,4.614-4.376,6.199l-93.277,53.857
		C287.132,444.742,283.28,445.658,279.331,445.658z"/>
</g>
<g id="Shopping_Cart">
	<g id="Cart_00000000902269454323133450000015623711406097172389_">
		<g>
			<path style="fill:#263238;" d="M240.349,108.798l-4.11,2.382l-6.749-27.521c-1.928-7.783-9.42-17.767-16.385-21.768l-3.764-2.182
				c-1.909-1.109-5.274-1.109-7.183,0l-11.468,6.58c-1.091,0.636-2.473,0.254-3.11-0.837c-0.618-1.073-0.255-2.473,0.837-3.091
				l11.467-6.598c3.292-1.891,8.438-1.891,11.711,0l3.782,2.182c8.002,4.619,16.312,15.658,18.531,24.623L240.349,108.798z"/>
			<g>
				<path id="XMLID_00000059992484948402508030000016942865594660554925_" style="fill:#BA68C8;" d="M105.371,122.376l-7.391-12.802
					l92.084-53.191l-0.001-0.002c0.958-0.761,2.407-0.742,4.011,0.185c2.888,1.668,5.227,5.72,5.227,9.052
					c0.001,1.852-0.707,3.117-1.845,3.566l-0.001,0L105.371,122.376z"/>
				<path style="opacity:0.1;fill:#FFFFFF;" d="M101.024,114.847l96.055-55.443c-0.706-0.983-1.54-1.844-2.445-2.478L99.34,111.93
					L101.024,114.847z"/>
				<path style="fill:#BA68C8;" d="M97.98,109.574c1.944-1.122,5.174,0.834,7.215,4.369c2.041,3.535,2.12,7.311,0.177,8.433
					c-1.944,1.122-5.174-0.834-7.215-4.369C96.115,114.472,96.036,110.696,97.98,109.574z"/>
				<path style="opacity:0.3;" d="M97.98,109.574c1.944-1.122,5.174,0.834,7.215,4.369c2.041,3.535,2.12,7.311,0.177,8.433
					c-1.944,1.122-5.174-0.834-7.215-4.369C96.115,114.472,96.036,110.696,97.98,109.574z"/>
			</g>
			<path style="fill:#263238;" d="M122.462,177.697l-4.11,2.365l-6.749-27.521c-1.928-7.784-9.438-17.749-16.385-21.75l-3.783-2.2
				c-1.964-1.127-3.091-2.837-3.091-4.692c0-1.855,1.127-3.564,3.091-4.692l8.193-4.673c0.6-0.346,1.6,0.254,2.219,1.346
				c0.636,1.091,0.654,2.255,0.054,2.601h-0.018l-8.174,4.674c-0.654,0.364-0.8,0.691-0.818,0.745
				c0.018,0.073,0.164,0.382,0.818,0.764l3.783,2.182c8.001,4.619,16.294,15.657,18.512,24.604L122.462,177.697z"/>
		</g>
		<g>
			<g>
				<g>
					<path style="fill:#E0E0E0;" d="M246.193,392.655c0.057,0.034,0.115,0.057,0.184,0.08c-6.237,8.098-16.414,10.418-18.7,9.35
						c-1.838-0.85-2.929-3.044-1.528-4.353c0.643-0.597,1.757-1.217,2.803-2.091c3.055-2.538,4.066-6.96,4.353-10.406
						L246.193,392.655z"/>
				</g>
				<g style="opacity:0.2;">
					<path d="M246.193,392.655c0.057,0.034,0.115,0.057,0.184,0.08c-6.237,8.098-16.414,10.418-18.7,9.35
						c-1.838-0.85-2.929-3.044-1.528-4.353c0.643-0.597,1.757-1.217,2.803-2.091c3.055-2.538,4.066-6.96,4.353-10.406
						L246.193,392.655z"/>
				</g>
				<g>
					<path id="XMLID_00000097494623675190297300000012341381823683045265_" style="fill:#37474F;" d="M239.775,405.165
						c0.042-6.521-4.487-14.481-10.114-17.778c-2.954-1.73-5.611-1.815-7.487-0.578l0,0l-6.922,3.894l14.509,25.017l6.861-3.89
						l-0.009-0.017C238.537,410.786,239.753,408.493,239.775,405.165z"/>
					<path id="XMLID_00000171685464844619906500000015038047372765202871_" style="fill:#455A64;" d="M222.475,391.467
						c5.628,3.297,10.155,11.257,10.113,17.779c-0.041,6.521-4.636,9.136-10.264,5.839c-5.627-3.297-10.155-11.256-10.114-17.778
						C212.252,390.785,216.848,388.17,222.475,391.467z"/>
					<path id="XMLID_00000001662696081169079810000007964850542513024426_" style="fill:#263238;" d="M218.951,401.255
						c0.016-2.549,1.574-3.711,3.479-2.595c1.905,1.116,3.436,4.088,3.419,6.637c-0.017,2.549-1.574,3.711-3.478,2.595
						C220.465,406.776,218.934,403.804,218.951,401.255z"/>
				</g>
				<g>
					<g>
						<path id="XMLID_00000164481504518936721840000013365443630019320717_" style="fill:#F5F5F5;" d="M228.488,382.466
							c0,0,0.671,12.039-4.844,16.637c-1.039,0.867-2.161,1.489-2.807,2.093c-1.4,1.305-0.3,3.498,1.538,4.353
							c2.673,1.244,16.373-2.279,21.712-14.103L228.488,382.466z"/>
					</g>
					<path id="XMLID_00000141455251626287263670000003187032236113628074_" style="fill:#263238;" d="M222.643,401.978
						c0.579,0.292,1.078,1.054,1.115,1.702c0.036,0.648-0.403,0.936-0.982,0.644c-0.579-0.292-1.078-1.054-1.115-1.701
						C221.625,401.974,222.064,401.686,222.643,401.978z"/>
				</g>
			</g>
			<g>
				<g>
					<path style="fill:#E0E0E0;" d="M176.174,358.658c0.057,0.035,0.169,0.095,0.169,0.095c-6.238,8.098-16.4,10.404-18.685,9.336
						c-1.838-0.85-2.929-3.044-1.528-4.353c0.643-0.597,1.758-1.218,2.803-2.091c3.055-2.538,4.066-6.961,4.353-10.407
						L176.174,358.658z"/>
				</g>
				<g style="opacity:0.2;">
					<path d="M176.174,358.658c0.057,0.035,0.169,0.095,0.169,0.095c-6.238,8.098-16.4,10.404-18.685,9.336
						c-1.838-0.85-2.929-3.044-1.528-4.353c0.643-0.597,1.758-1.218,2.803-2.091c3.055-2.538,4.066-6.961,4.353-10.407
						L176.174,358.658z"/>
				</g>
				<g>
					<path id="XMLID_00000168828115782901009340000004849388078453642680_" style="fill:#37474F;" d="M169.757,371.169
						c0.042-6.522-4.487-14.481-10.114-17.778c-2.953-1.731-5.611-1.816-7.486-0.578l0,0l-6.922,3.893l14.509,25.017l6.862-3.89
						l-0.009-0.017C168.519,376.79,169.735,374.497,169.757,371.169z"/>
					<path id="XMLID_00000098180952767920019960000004296496262065564094_" style="fill:#455A64;" d="M152.457,357.471
						c5.627,3.297,10.155,11.257,10.113,17.778c-0.041,6.521-4.636,9.136-10.264,5.839c-5.627-3.297-10.155-11.257-10.113-17.779
						C142.234,356.788,146.83,354.174,152.457,357.471z"/>
					<path id="XMLID_00000047755909540175186980000003593674047101411477_" style="fill:#263238;" d="M148.933,367.259
						c0.016-2.549,1.573-3.712,3.479-2.596c1.905,1.116,3.435,4.088,3.419,6.637c-0.016,2.549-1.574,3.711-3.478,2.595
						C150.447,372.78,148.916,369.808,148.933,367.259z"/>
				</g>
				<g>
					<g>
						<path id="XMLID_00000003102214395020395560000008902531694569746596_" style="fill:#F5F5F5;" d="M158.469,348.469
							c0,0,0.671,12.039-4.844,16.637c-1.039,0.866-2.16,1.489-2.807,2.093c-1.399,1.305-0.3,3.498,1.538,4.353
							c2.673,1.244,16.373-2.28,21.712-14.103L158.469,348.469z"/>
					</g>
					<path id="XMLID_00000004522242989748945490000000777460999578568839_" style="fill:#263238;" d="M152.625,367.982
						c0.579,0.292,1.078,1.054,1.115,1.702c0.037,0.647-0.403,0.936-0.982,0.643c-0.579-0.292-1.078-1.054-1.115-1.702
						C151.607,367.977,152.046,367.689,152.625,367.982z"/>
				</g>
			</g>
			<g>
				<g>
					<path style="fill:#E0E0E0;" d="M346.297,335.212c-6.249,8.075-16.402,10.395-18.688,9.327c-1.838-0.85-2.929-3.044-1.528-4.353
						c0.643-0.597,1.758-1.218,2.803-2.091c3.055-2.538,4.066-6.961,4.353-10.406l12.118,6.972l0.77,0.448L346.297,335.212z"/>
				</g>
				<g style="opacity:0.2;">
					<path d="M346.297,335.212c-6.249,8.075-16.402,10.395-18.688,9.327c-1.838-0.85-2.929-3.044-1.528-4.353
						c0.643-0.597,1.758-1.218,2.803-2.091c3.055-2.538,4.066-6.961,4.353-10.406l12.118,6.972l0.77,0.448L346.297,335.212z"/>
				</g>
				<g>
					<path id="XMLID_00000031885819024986629140000017138113315893672616_" style="fill:#37474F;" d="M339.701,347.623
						c0.042-6.521-4.487-14.482-10.114-17.778c-2.953-1.73-5.611-1.815-7.487-0.578l0,0l-6.922,3.894l14.509,25.017l6.861-3.89
						l-0.009-0.017C338.464,353.243,339.68,350.951,339.701,347.623z"/>
					<path id="XMLID_00000102545964806694352250000001478818558214232213_" style="fill:#455A64;" d="M322.401,333.924
						c5.627,3.297,10.155,11.257,10.113,17.778c-0.041,6.522-4.637,9.136-10.264,5.839c-5.627-3.297-10.155-11.256-10.114-17.778
						C312.179,333.242,316.774,330.628,322.401,333.924z"/>
					<path id="XMLID_00000012469835613379026060000016499633205172640139_" style="fill:#263238;" d="M318.877,343.712
						c0.016-2.549,1.573-3.711,3.479-2.595c1.905,1.116,3.436,4.088,3.42,6.637c-0.016,2.549-1.574,3.712-3.478,2.595
						C320.392,349.233,318.861,346.262,318.877,343.712z"/>
				</g>
				<g>
					<g>
						<path id="XMLID_00000156557067536737795910000015071278193923456385_" style="fill:#F5F5F5;" d="M328.414,324.923
							c0,0,0.671,12.039-4.844,16.637c-1.039,0.867-2.16,1.489-2.807,2.093c-1.4,1.305-0.3,3.497,1.538,4.353
							c2.673,1.244,16.374-2.28,21.712-14.103L328.414,324.923z"/>
					</g>
					<path id="XMLID_00000037671883651745852330000005030996473490939553_" style="fill:#263238;" d="M322.57,344.435
						c0.579,0.292,1.078,1.054,1.114,1.702c0.037,0.647-0.403,0.936-0.982,0.643c-0.579-0.292-1.078-1.054-1.115-1.701
						C321.551,344.431,321.991,344.143,322.57,344.435z"/>
				</g>
			</g>
			<g>
				<g>
					<path style="fill:#E0E0E0;" d="M285.997,295.263c0.057,0.034,0.169,0.094,0.169,0.094c-6.237,8.098-16.399,10.404-18.685,9.336
						c-1.838-0.85-2.929-3.044-1.528-4.353c0.644-0.597,1.758-1.218,2.803-2.091c3.055-2.538,4.066-6.961,4.353-10.407
						L285.997,295.263z"/>
				</g>
				<g style="opacity:0.2;">
					<path d="M285.997,295.263c0.057,0.034,0.169,0.094,0.169,0.094c-6.237,8.098-16.399,10.404-18.685,9.336
						c-1.838-0.85-2.929-3.044-1.528-4.353c0.644-0.597,1.758-1.218,2.803-2.091c3.055-2.538,4.066-6.961,4.353-10.407
						L285.997,295.263z"/>
				</g>
				<g>
					<path id="XMLID_00000075862201087254816260000008644620777869355678_" style="fill:#37474F;" d="M279.579,307.773
						c0.042-6.521-4.486-14.481-10.114-17.778c-2.954-1.731-5.611-1.815-7.487-0.578l0,0l-6.922,3.894l14.509,25.017l6.861-3.89
						l-0.009-0.018C278.341,313.394,279.558,311.101,279.579,307.773z"/>
					<path id="XMLID_00000009575219565678634200000007855237535787077550_" style="fill:#455A64;" d="M262.279,294.075
						c5.627,3.297,10.155,11.257,10.113,17.778c-0.041,6.522-4.637,9.136-10.264,5.839c-5.627-3.297-10.155-11.257-10.114-17.779
						C252.056,293.392,256.652,290.778,262.279,294.075z"/>
					<path id="XMLID_00000106118986517125465330000013850362846121794962_" style="fill:#263238;" d="M258.755,303.863
						c0.016-2.549,1.574-3.711,3.479-2.595c1.905,1.116,3.436,4.088,3.419,6.637c-0.016,2.549-1.574,3.711-3.478,2.595
						C260.269,309.384,258.738,306.412,258.755,303.863z"/>
				</g>
				<g>
					<g>
						<path id="XMLID_00000115497906879901431030000016741620703640794277_" style="fill:#F5F5F5;" d="M268.292,285.073
							c0,0,0.671,12.039-4.845,16.637c-1.039,0.866-2.16,1.489-2.807,2.093c-1.4,1.305-0.3,3.497,1.538,4.353
							c2.673,1.244,16.373-2.28,21.712-14.103L268.292,285.073z"/>
					</g>
					<path id="XMLID_00000163063956263658921410000001718334526173845147_" style="fill:#263238;" d="M262.448,304.586
						c0.579,0.292,1.078,1.054,1.115,1.702c0.037,0.648-0.403,0.936-0.982,0.643c-0.579-0.292-1.078-1.054-1.115-1.702
						C261.429,304.582,261.868,304.294,262.448,304.586z"/>
				</g>
			</g>
			<path style="fill:#455A64;" d="M281.385,407.901c-4.439,0-8.828-0.837-12.355-2.541l-122.43-59.119
				c-12.498-6.035-20.928-18.38-21.999-32.219l-12.239-158.084l5.533-0.428l12.239,158.084c0.92,11.876,8.154,22.47,18.88,27.65
				l122.43,59.119c6.053,2.924,16.089,2.553,21.914-0.808l67.982-39.253c2.341-1.352,3.671-3.097,3.742-4.914
				c0.07-1.817-1.117-3.661-3.346-5.192l-103.153-70.892c-9.793-6.73-15.935-17.385-16.853-29.231L229.256,88.956l5.533-0.428
				l12.473,161.117c0.787,10.166,6.059,19.31,14.463,25.085l103.153,70.892c3.799,2.611,5.894,6.249,5.747,9.984
				c-0.147,3.733-2.52,7.197-6.512,9.501l-67.982,39.253C292.073,406.703,286.693,407.901,281.385,407.901z"/>
		</g>
		<g>
			<g>
				<g>
					<path style="fill:#BA68C8;" d="M371.947,296.35l-126.511-86.943c-1.554-1.064-3.922-1.711-6.327-1.711
						c-2.053,0-3.959,0.444-5.355,1.258l-110.093,63.561c-0.823,0.472-1.202,0.897-1.332,1.11c0.148,0.194,0.555,0.592,1.406,0.999
						l152.418,73.596c1.517,0.731,3.579,1.138,5.818,1.138c2.673,0,5.318-0.601,7.066-1.609l82.771-47.791
						c0.943-0.546,1.563-1.23,1.582-1.748C373.418,297.691,372.845,296.961,371.947,296.35z M330.696,317.124l-15.243,8.805
						c-2.211,1.276-5.818,1.313-8.056,0.092l-38.56-21.144c-0.213-0.12-0.407-0.241-0.583-0.379c0.157-0.13,0.342-0.25,0.536-0.361
						l17.241-9.961c2.21-1.276,5.781-1.249,7.973,0.065l36.729,21.995c0.231,0.139,0.435,0.277,0.61,0.435
						C331.158,316.837,330.936,316.985,330.696,317.124z M301.626,333.911l-15.271,8.814c-2.211,1.276-5.855,1.397-8.149,0.268
						l-40.78-20.099c-0.194-0.092-0.37-0.203-0.536-0.315c0.12-0.092,0.259-0.176,0.398-0.259l17.176-9.915
						c2.21-1.276,5.827-1.332,8.084-0.13l39.013,20.931c0.213,0.111,0.398,0.231,0.573,0.361
						C301.977,333.689,301.811,333.8,301.626,333.911z M139.135,273.94l21.023-12.135c2.211-1.286,5.827-1.341,8.084-0.13
						l33.112,17.768c0.213,0.111,0.398,0.231,0.574,0.361c-0.157,0.12-0.324,0.231-0.509,0.342l-19.34,11.173
						c-2.211,1.276-5.864,1.397-8.158,0.268l-34.638-17.083c-0.194-0.092-0.379-0.203-0.546-0.314
						C138.858,274.106,138.997,274.023,139.135,273.94z M175.457,252.971l21.246-12.264c2.21-1.276,5.781-1.249,7.973,0.065
						l31.151,18.646c0.231,0.139,0.435,0.277,0.611,0.444c-0.185,0.166-0.407,0.314-0.648,0.453l-19.497,11.247
						c-2.211,1.276-5.827,1.323-8.065,0.092l-32.724-17.944c-0.213-0.12-0.407-0.24-0.582-0.379
						C175.078,253.203,175.263,253.083,175.457,252.971z M280.445,287.046l-17.49,10.1c-2.211,1.276-5.818,1.323-8.056,0.092
						l-32.724-17.943c-0.213-0.12-0.407-0.241-0.583-0.379c0.157-0.129,0.333-0.25,0.527-0.361l19.247-11.108
						c2.211-1.276,5.781-1.249,7.973,0.055l31.142,18.646c0.231,0.139,0.435,0.277,0.61,0.444
						C280.907,286.759,280.685,286.907,280.445,287.046z M312.41,268.593l-17.564,10.146c-2.211,1.276-5.772,1.23-7.954-0.102
						l-30.744-18.831c-0.231-0.139-0.444-0.296-0.62-0.453c0.194-0.176,0.425-0.333,0.684-0.481l19.386-11.191
						c2.211-1.276,5.725-1.156,7.843,0.259l29.135,19.553c0.241,0.157,0.444,0.333,0.629,0.518
						C312.984,268.224,312.716,268.418,312.41,268.593z M270.336,240.356l-19.645,11.349c-2.211,1.276-5.772,1.23-7.955-0.102
						l-30.744-18.822c-0.24-0.148-0.444-0.296-0.629-0.453c0.203-0.176,0.435-0.342,0.694-0.49l21.477-12.394
						c2.211-1.276,5.725-1.156,7.843,0.268l29.126,19.553c0.24,0.157,0.444,0.324,0.629,0.509
						C270.909,239.986,270.641,240.18,270.336,240.356z M188.212,298.135l19.109-11.034c2.21-1.276,5.827-1.332,8.074-0.13
						l33.121,17.768c0.213,0.111,0.398,0.231,0.574,0.37c-0.157,0.12-0.324,0.231-0.509,0.333l-17.444,10.072
						c-2.211,1.276-5.864,1.397-8.158,0.268L188.35,298.7c-0.194-0.092-0.37-0.194-0.536-0.314
						C187.934,298.302,188.073,298.219,188.212,298.135z M299.674,286.389c0.194-0.176,0.425-0.333,0.684-0.481l17.305-9.989
						c2.22-1.276,5.725-1.165,7.853,0.259l34.389,23.086c0.241,0.157,0.444,0.333,0.629,0.518c-0.222,0.213-0.49,0.407-0.796,0.583
						l-15.224,8.787c-2.211,1.276-5.762,1.23-7.945-0.102l-36.266-22.207C300.063,286.694,299.859,286.546,299.674,286.389z"/>
				</g>
				<g style="opacity:0.7;">
					<path style="fill:#FFFFFF;" d="M371.947,296.35l-126.511-86.943c-1.554-1.064-3.922-1.711-6.327-1.711
						c-2.053,0-3.959,0.444-5.355,1.258l-110.093,63.561c-0.823,0.472-1.202,0.897-1.332,1.11c0.148,0.194,0.555,0.592,1.406,0.999
						l152.418,73.596c1.517,0.731,3.579,1.138,5.818,1.138c2.673,0,5.318-0.601,7.066-1.609l82.771-47.791
						c0.943-0.546,1.563-1.23,1.582-1.748C373.418,297.691,372.845,296.961,371.947,296.35z M330.696,317.124l-15.243,8.805
						c-2.211,1.276-5.818,1.313-8.056,0.092l-38.56-21.144c-0.213-0.12-0.407-0.241-0.583-0.379c0.157-0.13,0.342-0.25,0.536-0.361
						l17.241-9.961c2.21-1.276,5.781-1.249,7.973,0.065l36.729,21.995c0.231,0.139,0.435,0.277,0.61,0.435
						C331.158,316.837,330.936,316.985,330.696,317.124z M301.626,333.911l-15.271,8.814c-2.211,1.276-5.855,1.397-8.149,0.268
						l-40.78-20.099c-0.194-0.092-0.37-0.203-0.536-0.315c0.12-0.092,0.259-0.176,0.398-0.259l17.176-9.915
						c2.21-1.276,5.827-1.332,8.084-0.13l39.013,20.931c0.213,0.111,0.398,0.231,0.573,0.361
						C301.977,333.689,301.811,333.8,301.626,333.911z M139.135,273.94l21.023-12.135c2.211-1.286,5.827-1.341,8.084-0.13
						l33.112,17.768c0.213,0.111,0.398,0.231,0.574,0.361c-0.157,0.12-0.324,0.231-0.509,0.342l-19.34,11.173
						c-2.211,1.276-5.864,1.397-8.158,0.268l-34.638-17.083c-0.194-0.092-0.379-0.203-0.546-0.314
						C138.858,274.106,138.997,274.023,139.135,273.94z M175.457,252.971l21.246-12.264c2.21-1.276,5.781-1.249,7.973,0.065
						l31.151,18.646c0.231,0.139,0.435,0.277,0.611,0.444c-0.185,0.166-0.407,0.314-0.648,0.453l-19.497,11.247
						c-2.211,1.276-5.827,1.323-8.065,0.092l-32.724-17.944c-0.213-0.12-0.407-0.24-0.582-0.379
						C175.078,253.203,175.263,253.083,175.457,252.971z M280.445,287.046l-17.49,10.1c-2.211,1.276-5.818,1.323-8.056,0.092
						l-32.724-17.943c-0.213-0.12-0.407-0.241-0.583-0.379c0.157-0.129,0.333-0.25,0.527-0.361l19.247-11.108
						c2.211-1.276,5.781-1.249,7.973,0.055l31.142,18.646c0.231,0.139,0.435,0.277,0.61,0.444
						C280.907,286.759,280.685,286.907,280.445,287.046z M312.41,268.593l-17.564,10.146c-2.211,1.276-5.772,1.23-7.954-0.102
						l-30.744-18.831c-0.231-0.139-0.444-0.296-0.62-0.453c0.194-0.176,0.425-0.333,0.684-0.481l19.386-11.191
						c2.211-1.276,5.725-1.156,7.843,0.259l29.135,19.553c0.241,0.157,0.444,0.333,0.629,0.518
						C312.984,268.224,312.716,268.418,312.41,268.593z M270.336,240.356l-19.645,11.349c-2.211,1.276-5.772,1.23-7.955-0.102
						l-30.744-18.822c-0.24-0.148-0.444-0.296-0.629-0.453c0.203-0.176,0.435-0.342,0.694-0.49l21.477-12.394
						c2.211-1.276,5.725-1.156,7.843,0.268l29.126,19.553c0.24,0.157,0.444,0.324,0.629,0.509
						C270.909,239.986,270.641,240.18,270.336,240.356z M188.212,298.135l19.109-11.034c2.21-1.276,5.827-1.332,8.074-0.13
						l33.121,17.768c0.213,0.111,0.398,0.231,0.574,0.37c-0.157,0.12-0.324,0.231-0.509,0.333l-17.444,10.072
						c-2.211,1.276-5.864,1.397-8.158,0.268L188.35,298.7c-0.194-0.092-0.37-0.194-0.536-0.314
						C187.934,298.302,188.073,298.219,188.212,298.135z M299.674,286.389c0.194-0.176,0.425-0.333,0.684-0.481l17.305-9.989
						c2.22-1.276,5.725-1.165,7.853,0.259l34.389,23.086c0.241,0.157,0.444,0.333,0.629,0.518c-0.222,0.213-0.49,0.407-0.796,0.583
						l-15.224,8.787c-2.211,1.276-5.762,1.23-7.945-0.102l-36.266-22.207C300.063,286.694,299.859,286.546,299.674,286.389z"/>
				</g>
				<g>
					<path style="fill:#BA68C8;" d="M248.517,300.947l-33.121-17.768c-2.248-1.203-5.864-1.147-8.074,0.129l-19.109,11.034
						c-2.026,1.165-2.137,2.895-0.398,4.042c0.12-0.083,0.259-0.167,0.398-0.25l19.109-11.034c2.21-1.276,5.827-1.332,8.074-0.13
						l33.121,17.768c0.213,0.111,0.398,0.231,0.574,0.37C250.783,303.833,250.579,302.048,248.517,300.947z M359.905,295.472
						l-34.389-23.086c-2.127-1.415-5.633-1.535-7.853-0.259l-17.305,9.989c-1.97,1.138-2.21,2.941-0.684,4.273
						c0.194-0.176,0.425-0.333,0.684-0.481l17.305-9.989c2.22-1.276,5.725-1.165,7.853,0.259l34.389,23.086
						c0.241,0.157,0.444,0.333,0.629,0.518C361.931,298.496,361.727,296.702,359.905,295.472z M201.355,275.651l-33.112-17.768
						c-2.257-1.212-5.873-1.147-8.084,0.129l-21.023,12.135c-2.016,1.165-2.136,2.895-0.398,4.042
						c0.12-0.083,0.259-0.167,0.398-0.25l21.023-12.135c2.211-1.286,5.827-1.341,8.084-0.13l33.112,17.768
						c0.213,0.111,0.398,0.231,0.574,0.361C203.612,278.536,203.417,276.751,201.355,275.651z M301.561,329.416l-39.013-20.922
						c-2.257-1.212-5.873-1.156-8.084,0.12l-17.176,9.915c-2.026,1.175-2.146,2.904-0.398,4.051c0.12-0.092,0.259-0.176,0.398-0.259
						l17.176-9.915c2.21-1.276,5.827-1.332,8.084-0.13l39.013,20.931c0.213,0.111,0.398,0.231,0.573,0.361
						C303.818,332.302,303.624,330.517,301.561,329.416z M330.733,312.444l-36.729-21.995c-2.192-1.304-5.762-1.341-7.973-0.055
						l-17.241,9.952c-1.998,1.156-2.174,2.932-0.536,4.153c0.157-0.13,0.342-0.25,0.536-0.361l17.241-9.961
						c2.21-1.276,5.781-1.249,7.973,0.065l36.729,21.995c0.231,0.139,0.435,0.277,0.61,0.435
						C332.888,315.395,332.685,313.6,330.733,312.444z M235.827,255.626l-31.151-18.646c-2.192-1.313-5.762-1.341-7.973-0.065
						l-21.246,12.264c-1.998,1.156-2.174,2.923-0.536,4.153c0.157-0.13,0.342-0.25,0.536-0.361l21.246-12.264
						c2.21-1.276,5.781-1.249,7.973,0.065l31.151,18.646c0.231,0.139,0.435,0.277,0.611,0.444
						C237.982,258.586,237.778,256.791,235.827,255.626z M270.502,235.472l-29.126-19.553c-2.118-1.424-5.633-1.545-7.843-0.268
						l-21.477,12.403c-1.979,1.138-2.22,2.941-0.694,4.273c0.203-0.176,0.435-0.342,0.694-0.49l21.477-12.394
						c2.211-1.276,5.725-1.156,7.843,0.268l29.126,19.553c0.24,0.157,0.444,0.324,0.629,0.509
						C272.537,238.487,272.333,236.693,270.502,235.472z M280.482,282.356l-31.142-18.637c-2.192-1.313-5.762-1.341-7.973-0.065
						l-19.247,11.108c-1.998,1.156-2.164,2.932-0.527,4.153c0.157-0.129,0.333-0.25,0.527-0.361l19.247-11.108
						c2.211-1.276,5.781-1.249,7.973,0.055l31.142,18.646c0.231,0.139,0.435,0.277,0.61,0.444
						C282.637,285.325,282.434,283.531,280.482,282.356z M312.577,263.71l-29.135-19.553c-2.118-1.424-5.633-1.545-7.843-0.268
						l-19.386,11.192c-1.979,1.138-2.22,2.951-0.684,4.273c0.194-0.176,0.425-0.333,0.684-0.481l19.386-11.191
						c2.211-1.276,5.725-1.156,7.843,0.259l29.135,19.553c0.241,0.157,0.444,0.333,0.629,0.518
						C314.602,266.725,314.399,264.931,312.577,263.71z"/>
				</g>
				<path style="opacity:0.3;fill:#FFFFFF;" d="M201.928,279.803c1.683-1.267,1.489-3.052-0.574-4.153l-33.112-17.768
					c-2.257-1.212-5.873-1.147-8.084,0.129l-21.023,12.135c-2.016,1.165-2.136,2.895-0.398,4.042c0.12-0.083,0.259-0.167,0.398-0.25
					l21.023-12.135c2.211-1.286,5.827-1.341,8.084-0.13l33.112,17.768C201.568,279.554,201.753,279.674,201.928,279.803z
					 M174.921,253.332c0.157-0.13,0.342-0.25,0.536-0.361l21.246-12.264c2.21-1.276,5.781-1.249,7.973,0.065l31.151,18.646
					c0.231,0.139,0.435,0.277,0.611,0.444c1.544-1.276,1.341-3.071-0.611-4.236l-31.151-18.646
					c-2.192-1.313-5.762-1.341-7.973-0.065l-21.246,12.264C173.459,250.335,173.283,252.102,174.921,253.332z M255.527,259.353
					c0.194-0.176,0.426-0.333,0.685-0.481l19.386-11.192c2.211-1.276,5.725-1.156,7.844,0.259l29.135,19.553
					c0.24,0.157,0.444,0.333,0.629,0.518c1.396-1.286,1.193-3.08-0.629-4.301l-29.135-19.553c-2.118-1.424-5.633-1.545-7.844-0.268
					l-19.386,11.192C254.233,256.218,253.992,258.031,255.527,259.353z M249.34,263.719c-2.192-1.313-5.762-1.341-7.973-0.065
					l-19.247,11.108c-1.998,1.156-2.164,2.932-0.527,4.153c0.157-0.129,0.333-0.25,0.527-0.361l19.247-11.108
					c2.211-1.276,5.781-1.249,7.973,0.055l31.142,18.646c0.231,0.139,0.435,0.277,0.61,0.444c1.545-1.267,1.341-3.061-0.61-4.236
					L249.34,263.719z M212.056,231.837l21.477-12.394c2.211-1.276,5.725-1.156,7.843,0.268l29.126,19.553
					c0.24,0.157,0.444,0.324,0.629,0.509c1.406-1.286,1.202-3.08-0.629-4.301l-29.126-19.553c-2.118-1.424-5.633-1.545-7.843-0.268
					l-21.477,12.403c-1.979,1.138-2.22,2.941-0.694,4.273C211.566,232.152,211.797,231.985,212.056,231.837z M330.733,312.444
					l-36.729-21.995c-2.192-1.304-5.762-1.341-7.973-0.056l-17.24,9.952c-1.998,1.156-2.174,2.932-0.537,4.153
					c0.157-0.13,0.342-0.25,0.537-0.361l17.24-9.961c2.211-1.276,5.781-1.249,7.973,0.065l36.729,21.995
					c0.231,0.139,0.435,0.277,0.61,0.435C332.888,315.394,332.684,313.6,330.733,312.444z M249.09,305.109
					c1.692-1.276,1.489-3.062-0.574-4.162l-33.121-17.768c-2.248-1.203-5.864-1.147-8.074,0.129l-19.109,11.034
					c-2.026,1.165-2.137,2.895-0.398,4.042c0.12-0.083,0.259-0.167,0.398-0.25l19.109-11.034c2.21-1.276,5.827-1.332,8.074-0.13
					l33.121,17.768C248.73,304.85,248.914,304.971,249.09,305.109z M359.905,295.472l-34.389-23.086
					c-2.127-1.415-5.633-1.535-7.853-0.259l-17.305,9.989c-1.97,1.138-2.21,2.941-0.684,4.273c0.194-0.176,0.425-0.333,0.684-0.481
					l17.305-9.989c2.22-1.276,5.725-1.165,7.853,0.259l34.389,23.086c0.241,0.157,0.444,0.333,0.629,0.518
					C361.931,298.496,361.727,296.702,359.905,295.472z M301.561,329.416l-39.013-20.922c-2.257-1.212-5.874-1.156-8.084,0.12
					l-17.176,9.915c-2.026,1.175-2.146,2.904-0.398,4.051c0.12-0.092,0.259-0.176,0.398-0.259l17.176-9.915
					c2.21-1.276,5.827-1.332,8.084-0.129l39.013,20.931c0.213,0.111,0.398,0.231,0.573,0.361
					C303.818,332.302,303.624,330.517,301.561,329.416z"/>
			</g>
			<g>
				<g>
					<path style="fill:#BA68C8;" d="M240.118,205.801l-0.074-1.776l-4.967-116.466c-0.518-0.065-1.045-0.102-1.572-0.102
						c-1.85,0-3.589,0.407-4.884,1.156l-114.024,65.836c-1.156,0.657-1.434,1.239-1.443,1.341l8.713,113.497l0.462,4.338
						c0.13-0.213,0.509-0.638,1.332-1.11l110.093-63.561c1.397-0.814,3.302-1.258,5.355-1.258c0.37,0,0.731,0.019,1.091,0.046
						L240.118,205.801z M223.664,164.919l-21.819,12.607c-0.37,0.213-0.731,0.361-1.073,0.444c-0.065-0.268-0.111-0.573-0.13-0.897
						l-1.128-20.654c-0.129-2.553,1.545-5.651,3.755-6.928l22.087-12.755c0.361-0.204,0.703-0.352,1.036-0.435
						c0.074,0.268,0.111,0.564,0.129,0.888l0.943,20.801C227.577,160.544,225.874,163.643,223.664,164.919z M224.839,99.629
						l0.934,20.801c0.111,2.553-1.591,5.661-3.801,6.937l-22.152,12.792c-0.37,0.213-0.731,0.361-1.073,0.444
						c-0.065-0.268-0.111-0.574-0.13-0.897l-1.128-20.653c-0.129-2.544,1.544-5.651,3.755-6.928l22.429-12.949
						c0.351-0.203,0.703-0.352,1.036-0.435C224.783,99.009,224.82,99.305,224.839,99.629z M165.653,171.208l22.087-12.755
						c0.37-0.213,0.74-0.361,1.082-0.444c0.074,0.268,0.12,0.574,0.139,0.897l1.156,20.617c0.148,2.553-1.526,5.651-3.746,6.928
						l-21.837,12.607c-0.379,0.222-0.758,0.37-1.11,0.453c-0.074-0.268-0.129-0.573-0.148-0.897l-1.323-20.478
						C161.787,175.583,163.442,172.485,165.653,171.208z M186.852,121.586l1.165,20.616c0.139,2.553-1.535,5.661-3.746,6.937
						l-22.143,12.782c-0.379,0.222-0.749,0.37-1.11,0.444c-0.074-0.268-0.13-0.564-0.148-0.888l-1.332-20.487
						c-0.166-2.544,1.489-5.651,3.709-6.928l22.383-12.921c0.37-0.213,0.74-0.361,1.082-0.444
						C186.787,120.967,186.834,121.263,186.852,121.586z M128.046,192.926l22.078-12.755c0.379-0.222,0.758-0.37,1.119-0.453
						c0.074,0.277,0.129,0.573,0.148,0.907l1.369,20.441c0.167,2.553-1.489,5.651-3.7,6.928l-21.856,12.625
						c-0.388,0.222-0.768,0.379-1.138,0.453c-0.083-0.277-0.13-0.574-0.157-0.897l-1.526-20.33
						C124.189,197.301,125.835,194.202,128.046,192.926z M148.903,143.525l1.369,20.45c0.176,2.544-1.48,5.642-3.691,6.928
						l-22.142,12.773c-0.388,0.222-0.777,0.379-1.138,0.453c-0.083-0.268-0.129-0.573-0.157-0.897l-1.526-20.321
						c-0.194-2.544,1.452-5.642,3.663-6.928l22.356-12.903c0.388-0.222,0.758-0.379,1.119-0.463
						C148.829,142.897,148.884,143.193,148.903,143.525z M128.665,257.106l-1.517-20.32c-0.194-2.553,1.452-5.651,3.663-6.928
						l21.8-12.588c0.379-0.222,0.749-0.37,1.11-0.444c0.074,0.268,0.13,0.564,0.148,0.888l1.369,20.45
						c0.176,2.553-1.48,5.651-3.69,6.928l-21.579,12.459c-0.398,0.222-0.777,0.379-1.147,0.453
						C128.739,257.726,128.693,257.43,128.665,257.106z M165.69,235.759l-1.332-20.487c-0.166-2.544,1.499-5.651,3.709-6.928
						l21.782-12.57c0.37-0.213,0.731-0.361,1.073-0.435c0.074,0.268,0.12,0.564,0.139,0.879l1.165,20.626
						c0.139,2.544-1.535,5.651-3.746,6.928l-21.532,12.431c-0.379,0.222-0.749,0.37-1.11,0.453
						C165.764,236.378,165.708,236.082,165.69,235.759z M202.668,214.439l-1.128-20.663c-0.13-2.544,1.545-5.651,3.755-6.928
						l21.754-12.561c0.352-0.203,0.703-0.352,1.036-0.435c0.074,0.268,0.111,0.564,0.129,0.888l0.943,20.802
						c0.111,2.553-1.591,5.661-3.801,6.937l-21.486,12.403c-0.37,0.213-0.731,0.361-1.073,0.435
						C202.724,215.05,202.687,214.754,202.668,214.439z"/>
					<path style="opacity:0.3;fill:#FFFFFF;" d="M240.118,205.801l-0.074-1.776l-4.967-116.466
						c-0.518-0.065-1.045-0.102-1.572-0.102c-1.85,0-3.589,0.407-4.884,1.156l-114.024,65.836c-1.156,0.657-1.434,1.239-1.443,1.341
						l8.713,113.497l0.462,4.338c0.13-0.213,0.509-0.638,1.332-1.11l110.093-63.561c1.397-0.814,3.302-1.258,5.355-1.258
						c0.37,0,0.731,0.019,1.091,0.046L240.118,205.801z M223.664,164.919l-21.819,12.607c-0.37,0.213-0.731,0.361-1.073,0.444
						c-0.065-0.268-0.111-0.573-0.13-0.897l-1.128-20.654c-0.129-2.553,1.545-5.651,3.755-6.928l22.087-12.755
						c0.361-0.204,0.703-0.352,1.036-0.435c0.074,0.268,0.111,0.564,0.129,0.888l0.943,20.801
						C227.577,160.544,225.874,163.643,223.664,164.919z M224.839,99.629l0.934,20.801c0.111,2.553-1.591,5.661-3.801,6.937
						l-22.152,12.792c-0.37,0.213-0.731,0.361-1.073,0.444c-0.065-0.268-0.111-0.574-0.13-0.897l-1.128-20.653
						c-0.129-2.544,1.544-5.651,3.755-6.928l22.429-12.949c0.351-0.203,0.703-0.352,1.036-0.435
						C224.783,99.009,224.82,99.305,224.839,99.629z M165.653,171.208l22.087-12.755c0.37-0.213,0.74-0.361,1.082-0.444
						c0.074,0.268,0.12,0.574,0.139,0.897l1.156,20.617c0.148,2.553-1.526,5.651-3.746,6.928l-21.837,12.607
						c-0.379,0.222-0.758,0.37-1.11,0.453c-0.074-0.268-0.129-0.573-0.148-0.897l-1.323-20.478
						C161.787,175.583,163.442,172.485,165.653,171.208z M186.852,121.586l1.165,20.616c0.139,2.553-1.535,5.661-3.746,6.937
						l-22.143,12.782c-0.379,0.222-0.749,0.37-1.11,0.444c-0.074-0.268-0.13-0.564-0.148-0.888l-1.332-20.487
						c-0.166-2.544,1.489-5.651,3.709-6.928l22.383-12.921c0.37-0.213,0.74-0.361,1.082-0.444
						C186.787,120.967,186.834,121.263,186.852,121.586z M128.046,192.926l22.078-12.755c0.379-0.222,0.758-0.37,1.119-0.453
						c0.074,0.277,0.129,0.573,0.148,0.907l1.369,20.441c0.167,2.553-1.489,5.651-3.7,6.928l-21.856,12.625
						c-0.388,0.222-0.768,0.379-1.138,0.453c-0.083-0.277-0.13-0.574-0.157-0.897l-1.526-20.33
						C124.189,197.301,125.835,194.202,128.046,192.926z M148.903,143.525l1.369,20.45c0.176,2.544-1.48,5.642-3.691,6.928
						l-22.142,12.773c-0.388,0.222-0.777,0.379-1.138,0.453c-0.083-0.268-0.129-0.573-0.157-0.897l-1.526-20.321
						c-0.194-2.544,1.452-5.642,3.663-6.928l22.356-12.903c0.388-0.222,0.758-0.379,1.119-0.463
						C148.829,142.897,148.884,143.193,148.903,143.525z M128.665,257.106l-1.517-20.32c-0.194-2.553,1.452-5.651,3.663-6.928
						l21.8-12.588c0.379-0.222,0.749-0.37,1.11-0.444c0.074,0.268,0.13,0.564,0.148,0.888l1.369,20.45
						c0.176,2.553-1.48,5.651-3.69,6.928l-21.579,12.459c-0.398,0.222-0.777,0.379-1.147,0.453
						C128.739,257.726,128.693,257.43,128.665,257.106z M165.69,235.759l-1.332-20.487c-0.166-2.544,1.499-5.651,3.709-6.928
						l21.782-12.57c0.37-0.213,0.731-0.361,1.073-0.435c0.074,0.268,0.12,0.564,0.139,0.879l1.165,20.626
						c0.139,2.544-1.535,5.651-3.746,6.928l-21.532,12.431c-0.379,0.222-0.749,0.37-1.11,0.453
						C165.764,236.378,165.708,236.082,165.69,235.759z M202.668,214.439l-1.128-20.663c-0.13-2.544,1.545-5.651,3.755-6.928
						l21.754-12.561c0.352-0.203,0.703-0.352,1.036-0.435c0.074,0.268,0.111,0.564,0.129,0.888l0.943,20.802
						c0.111,2.553-1.591,5.661-3.801,6.937l-21.486,12.403c-0.37,0.213-0.731,0.361-1.073,0.435
						C202.724,215.05,202.687,214.754,202.668,214.439z"/>
					<path style="fill:#BA68C8;" d="M194.113,198.077c-0.12-2.127-1.471-3.191-3.191-2.738c0.074,0.268,0.12,0.564,0.139,0.879
						l1.165,20.626c0.139,2.544-1.535,5.651-3.746,6.928l-21.532,12.431c-0.379,0.222-0.749,0.37-1.11,0.453
						c0.518,1.868,2.229,2.516,4.162,1.406l21.532-12.431c2.21-1.286,3.885-4.384,3.737-6.937L194.113,198.077z M229.574,139.04
						c-0.092-2.146-1.434-3.21-3.182-2.738c0.074,0.268,0.111,0.564,0.129,0.888l0.943,20.801c0.111,2.553-1.591,5.651-3.801,6.928
						l-21.819,12.607c-0.37,0.213-0.731,0.361-1.073,0.444c0.49,1.878,2.192,2.516,4.125,1.406l21.819-12.597
						c2.21-1.276,3.912-4.375,3.792-6.928L229.574,139.04z M192.004,160.757c-0.111-2.118-1.452-3.182-3.182-2.747
						c0.074,0.268,0.12,0.574,0.139,0.897l1.156,20.617c0.148,2.553-1.526,5.651-3.746,6.928l-21.837,12.607
						c-0.379,0.222-0.758,0.37-1.11,0.453c0.518,1.878,2.229,2.516,4.162,1.406l21.837-12.607c2.21-1.276,3.885-4.384,3.746-6.928
						L192.004,160.757z M227.882,101.488c-0.093-2.137-1.434-3.219-3.173-2.747c0.074,0.268,0.111,0.564,0.13,0.888l0.934,20.801
						c0.111,2.553-1.591,5.661-3.801,6.937l-22.152,12.792c-0.37,0.213-0.731,0.361-1.073,0.444c0.49,1.878,2.192,2.525,4.125,1.415
						l22.152-12.792c2.21-1.276,3.912-4.384,3.792-6.937L227.882,101.488z M189.895,123.446c-0.111-2.127-1.462-3.191-3.182-2.747
						c0.074,0.268,0.12,0.564,0.139,0.888l1.165,20.616c0.139,2.553-1.535,5.661-3.746,6.937l-22.143,12.782
						c-0.379,0.222-0.749,0.37-1.11,0.444c0.508,1.878,2.22,2.534,4.153,1.415l22.143-12.792c2.22-1.276,3.894-4.375,3.746-6.928
						L189.895,123.446z M151.955,145.375c-0.148-2.1-1.489-3.173-3.2-2.756c0.074,0.278,0.129,0.574,0.148,0.906l1.369,20.45
						c0.176,2.544-1.48,5.642-3.691,6.928l-22.142,12.773c-0.388,0.222-0.777,0.379-1.138,0.453c0.527,1.878,2.257,2.516,4.19,1.406
						l22.133-12.782c2.21-1.276,3.866-4.375,3.7-6.928L151.955,145.375z M231.267,176.601c-0.102-2.136-1.443-3.219-3.182-2.747
						c0.074,0.268,0.111,0.564,0.129,0.888l0.943,20.802c0.111,2.553-1.591,5.661-3.801,6.937l-21.486,12.403
						c-0.37,0.213-0.731,0.361-1.073,0.435c0.481,1.887,2.183,2.544,4.125,1.424l21.486-12.403c2.211-1.276,3.912-4.384,3.792-6.937
						L231.267,176.601z M156.922,219.573c-0.139-2.109-1.489-3.173-3.2-2.747c0.074,0.268,0.13,0.564,0.148,0.888l1.369,20.45
						c0.176,2.553-1.48,5.651-3.69,6.928l-21.579,12.459c-0.398,0.222-0.777,0.379-1.147,0.453c0.536,1.868,2.266,2.516,4.199,1.406
						l21.569-12.459c2.22-1.276,3.866-4.375,3.7-6.928L156.922,219.573z M154.434,182.474c-0.139-2.1-1.48-3.173-3.191-2.756
						c0.074,0.277,0.129,0.573,0.148,0.907l1.369,20.441c0.167,2.553-1.489,5.651-3.7,6.928l-21.856,12.625
						c-0.388,0.222-0.768,0.379-1.138,0.453c0.527,1.868,2.257,2.507,4.19,1.397l21.856-12.616c2.211-1.276,3.866-4.375,3.691-6.928
						L154.434,182.474z"/>
				</g>
				<g>
					<path style="fill:#BA68C8;" d="M383.62,199.992L239.859,89.353c-1.202-0.925-2.923-1.563-4.782-1.794l5.041,118.186
						l0.083,1.998c1.905,0.176,3.69,0.638,5.235,1.665l128.111,88.043l11.478-95.295v-0.065
						C385.026,201.453,384.517,200.667,383.62,199.992z M327.801,220.387c-0.009,0.12-0.019,0.24-0.037,0.352
						c-0.148-0.083-0.296-0.176-0.444-0.287l-30.559-21.985c-2.072-1.489-3.7-4.773-3.635-7.325l0.481-18.267
						c0-0.065,0-0.13,0.009-0.185c0.083,0.056,0.157,0.111,0.24,0.167l31.725,23.484c2.053,1.526,3.57,4.819,3.394,7.372
						L327.801,220.387z M372.077,252.592c-0.203-0.102-0.407-0.231-0.62-0.379l-30.31-21.81c-2.072-1.499-3.598-4.773-3.394-7.316
						l1.258-16.445c0.009-0.102,0.019-0.203,0.037-0.296c0.148,0.083,0.296,0.185,0.444,0.296l31.188,23.086
						c2.053,1.526,3.487,4.81,3.191,7.353l-1.729,15.095C372.123,252.324,372.105,252.463,372.077,252.592z M341.906,174.649
						l32.289,24.696c2.026,1.554,3.431,4.865,3.145,7.409l-1.72,15.067c-0.009,0.12-0.028,0.24-0.056,0.351
						c-0.194-0.102-0.388-0.222-0.583-0.37l-31.42-23.419c-2.044-1.526-3.542-4.828-3.348-7.372l1.258-16.408
						c0.009-0.083,0.009-0.157,0.018-0.231C341.629,174.446,341.767,174.547,341.906,174.649z M294.707,138.549l33.177,25.38
						c2.035,1.554,3.533,4.874,3.348,7.427l-1.165,16.649c-0.009,0.092-0.018,0.185-0.028,0.277
						c-0.139-0.083-0.268-0.176-0.407-0.277l-32.021-23.863c-2.044-1.526-3.653-4.837-3.579-7.39l0.471-18.239
						c0-0.037,0-0.074,0.01-0.102C294.578,138.457,294.643,138.503,294.707,138.549z M283.127,188.393c0,0.083,0,0.157-0.009,0.231
						c-0.083-0.046-0.157-0.102-0.231-0.157l-30.911-22.244c-2.072-1.498-3.82-4.773-3.903-7.325l-0.684-20.441l32.446,24.02
						c2.053,1.517,3.681,4.819,3.635,7.372L283.127,188.393z M280.51,127.7c2.035,1.545,3.635,4.874,3.589,7.427l-0.333,18.535
						v0.139c-0.065-0.037-0.139-0.093-0.203-0.139l-32.863-24.492c-2.053-1.526-3.783-4.837-3.866-7.39l-0.675-20.367L280.51,127.7z
						 M282.202,223.291l-28.941-20.052c-2.1-1.452-3.875-4.699-3.959-7.251l-0.675-20.432v-0.083c0.009,0,0.009,0.009,0.018,0.009
						l30.513,21.8c2.081,1.489,3.727,4.763,3.681,7.316l-0.342,18.554c0,0.111-0.009,0.213-0.018,0.315
						C282.387,223.411,282.295,223.355,282.202,223.291z M325.008,252.944L295.91,232.79c-2.1-1.452-3.746-4.708-3.681-7.261
						l0.481-18.277c0-0.092,0.009-0.176,0.018-0.268c0.093,0.065,0.176,0.12,0.268,0.185l30.273,21.625
						c2.072,1.489,3.617,4.754,3.441,7.307l-1.175,16.713c-0.009,0.148-0.028,0.287-0.046,0.416
						C325.331,253.156,325.165,253.055,325.008,252.944z M367.924,282.68l-29.191-20.228c-2.1-1.452-3.644-4.699-3.45-7.242
						l1.249-16.491c0.009-0.13,0.028-0.259,0.046-0.379c0.157,0.093,0.314,0.194,0.471,0.305l30.106,21.514
						c2.081,1.48,3.533,4.745,3.237,7.279l-1.729,15.132c-0.019,0.176-0.046,0.333-0.083,0.49
						C368.368,282.957,368.146,282.837,367.924,282.68z"/>
					<path style="opacity:0.5;fill:#FFFFFF;" d="M383.62,199.992L239.859,89.353c-1.202-0.925-2.923-1.563-4.782-1.794
						l5.041,118.186l0.083,1.998c1.905,0.176,3.69,0.638,5.235,1.665l128.111,88.043l11.478-95.295v-0.065
						C385.026,201.453,384.517,200.667,383.62,199.992z M327.801,220.387c-0.009,0.12-0.019,0.24-0.037,0.352
						c-0.148-0.083-0.296-0.176-0.444-0.287l-30.559-21.985c-2.072-1.489-3.7-4.773-3.635-7.325l0.481-18.267
						c0-0.065,0-0.13,0.009-0.185c0.083,0.056,0.157,0.111,0.24,0.167l31.725,23.484c2.053,1.526,3.57,4.819,3.394,7.372
						L327.801,220.387z M372.077,252.592c-0.203-0.102-0.407-0.231-0.62-0.379l-30.31-21.81c-2.072-1.499-3.598-4.773-3.394-7.316
						l1.258-16.445c0.009-0.102,0.019-0.203,0.037-0.296c0.148,0.083,0.296,0.185,0.444,0.296l31.188,23.086
						c2.053,1.526,3.487,4.81,3.191,7.353l-1.729,15.095C372.123,252.324,372.105,252.463,372.077,252.592z M341.906,174.649
						l32.289,24.696c2.026,1.554,3.431,4.865,3.145,7.409l-1.72,15.067c-0.009,0.12-0.028,0.24-0.056,0.351
						c-0.194-0.102-0.388-0.222-0.583-0.37l-31.42-23.419c-2.044-1.526-3.542-4.828-3.348-7.372l1.258-16.408
						c0.009-0.083,0.009-0.157,0.018-0.231C341.629,174.446,341.767,174.547,341.906,174.649z M294.707,138.549l33.177,25.38
						c2.035,1.554,3.533,4.874,3.348,7.427l-1.165,16.649c-0.009,0.092-0.018,0.185-0.028,0.277
						c-0.139-0.083-0.268-0.176-0.407-0.277l-32.021-23.863c-2.044-1.526-3.653-4.837-3.579-7.39l0.471-18.239
						c0-0.037,0-0.074,0.01-0.102C294.578,138.457,294.643,138.503,294.707,138.549z M283.127,188.393c0,0.083,0,0.157-0.009,0.231
						c-0.083-0.046-0.157-0.102-0.231-0.157l-30.911-22.244c-2.072-1.498-3.82-4.773-3.903-7.325l-0.684-20.441l32.446,24.02
						c2.053,1.517,3.681,4.819,3.635,7.372L283.127,188.393z M280.51,127.7c2.035,1.545,3.635,4.874,3.589,7.427l-0.333,18.535
						v0.139c-0.065-0.037-0.139-0.093-0.203-0.139l-32.863-24.492c-2.053-1.526-3.783-4.837-3.866-7.39l-0.675-20.367L280.51,127.7z
						 M282.202,223.291l-28.941-20.052c-2.1-1.452-3.875-4.699-3.959-7.251l-0.675-20.432v-0.083c0.009,0,0.009,0.009,0.018,0.009
						l30.513,21.8c2.081,1.489,3.727,4.763,3.681,7.316l-0.342,18.554c0,0.111-0.009,0.213-0.018,0.315
						C282.387,223.411,282.295,223.355,282.202,223.291z M325.008,252.944L295.91,232.79c-2.1-1.452-3.746-4.708-3.681-7.261
						l0.481-18.277c0-0.092,0.009-0.176,0.018-0.268c0.093,0.065,0.176,0.12,0.268,0.185l30.273,21.625
						c2.072,1.489,3.617,4.754,3.441,7.307l-1.175,16.713c-0.009,0.148-0.028,0.287-0.046,0.416
						C325.331,253.156,325.165,253.055,325.008,252.944z M367.924,282.68l-29.191-20.228c-2.1-1.452-3.644-4.699-3.45-7.242
						l1.249-16.491c0.009-0.13,0.028-0.259,0.046-0.379c0.157,0.093,0.314,0.194,0.471,0.305l30.106,21.514
						c2.081,1.48,3.533,4.745,3.237,7.279l-1.729,15.132c-0.019,0.176-0.046,0.333-0.083,0.49
						C368.368,282.957,368.146,282.837,367.924,282.68z"/>
					<path style="fill:#BA68C8;" d="M250.699,129.171c-2.053-1.526-3.783-4.837-3.866-7.39l-0.675-20.367l-0.074-0.056
						c-2.035-1.545-3.607-0.74-3.524,1.813l0.684,20.468c0.083,2.553,1.813,5.855,3.857,7.381l32.872,24.501
						c2.007,1.498,3.681,0.721,3.792-1.72c-0.065-0.037-0.139-0.093-0.203-0.139L250.699,129.171z M251.976,166.223
						c-2.072-1.498-3.82-4.773-3.903-7.325l-0.684-20.441l-0.028-0.019c-2.053-1.526-3.644-0.684-3.561,1.868l0.675,20.441
						c0.093,2.553,1.841,5.836,3.912,7.325l30.911,22.244c2.007,1.452,3.681,0.684,3.82-1.693c-0.083-0.046-0.157-0.102-0.231-0.157
						L251.976,166.223z M295.91,232.79c-2.1-1.452-3.746-4.708-3.681-7.261l0.481-18.277c0-0.092,0.009-0.176,0.018-0.268
						c-1.952-1.221-3.543-0.324-3.607,2.127l-0.481,18.277c-0.065,2.553,1.582,5.799,3.681,7.251l29.089,20.154
						c1.979,1.378,3.737,0.666,4.079-1.563c-0.157-0.074-0.324-0.176-0.481-0.287L295.91,232.79z M253.262,203.238
						c-2.1-1.452-3.875-4.699-3.959-7.251l-0.675-20.432v-0.083c-2.072-1.471-3.681-0.601-3.598,1.942l0.684,20.422
						c0.083,2.553,1.85,5.799,3.949,7.251l28.95,20.052c2.007,1.397,3.69,0.638,3.866-1.674c-0.092-0.056-0.185-0.111-0.277-0.176
						L253.262,203.238z M374.981,221.802l-31.42-23.419c-2.044-1.526-3.542-4.828-3.348-7.372l1.258-16.408
						c0.009-0.083,0.009-0.157,0.018-0.231c-1.85-1.147-3.422-0.287-3.607,2.081l-1.267,16.408
						c-0.194,2.553,1.314,5.855,3.358,7.381l31.41,23.41c1.951,1.452,3.764,0.786,4.181-1.48
						C375.37,222.07,375.176,221.95,374.981,221.802z M296.761,198.466c-2.072-1.489-3.7-4.773-3.635-7.325l0.481-18.267
						c0-0.065,0-0.13,0.009-0.185c-1.942-1.286-3.533-0.416-3.598,2.035L289.537,193c-0.065,2.553,1.563,5.827,3.635,7.316
						l30.559,21.985c1.97,1.415,3.718,0.712,4.033-1.563c-0.148-0.083-0.296-0.176-0.444-0.287L296.761,198.466z M341.148,230.404
						c-2.072-1.499-3.598-4.773-3.394-7.316l1.258-16.445c0.009-0.102,0.019-0.203,0.037-0.296c-1.868-1.101-3.45-0.213-3.626,2.155
						l-1.267,16.436c-0.194,2.553,1.332,5.827,3.404,7.316l30.31,21.819c1.952,1.406,3.764,0.731,4.208-1.48
						c-0.203-0.102-0.407-0.231-0.62-0.379L341.148,230.404z M338.733,262.452c-2.1-1.452-3.644-4.699-3.45-7.242l1.249-16.491
						c0.009-0.13,0.028-0.259,0.046-0.379c-1.878-1.036-3.459-0.12-3.635,2.229l-1.258,16.491c-0.194,2.553,1.35,5.79,3.45,7.251
						l29.2,20.219c1.961,1.36,3.774,0.694,4.245-1.471c-0.213-0.102-0.435-0.222-0.657-0.379L338.733,262.452z M297.612,164.142
						c-2.044-1.526-3.653-4.837-3.579-7.39l0.471-18.239c0-0.037,0-0.074,0.01-0.102c-1.943-1.35-3.533-0.518-3.598,1.952
						l-0.481,18.24c-0.065,2.553,1.545,5.864,3.589,7.39l32.021,23.863c1.97,1.471,3.709,0.758,3.996-1.572
						c-0.139-0.083-0.268-0.176-0.407-0.277L297.612,164.142z"/>
					<path style="opacity:0.2;fill:#FFFFFF;" d="M250.699,129.171c-2.053-1.526-3.783-4.837-3.866-7.39l-0.675-20.367l-0.074-0.056
						c-2.035-1.545-3.607-0.74-3.524,1.813l0.684,20.468c0.083,2.553,1.813,5.855,3.857,7.381l32.872,24.501
						c2.007,1.498,3.681,0.721,3.792-1.72c-0.065-0.037-0.139-0.093-0.203-0.139L250.699,129.171z M251.976,166.223
						c-2.072-1.498-3.82-4.773-3.903-7.325l-0.684-20.441l-0.028-0.019c-2.053-1.526-3.644-0.684-3.561,1.868l0.675,20.441
						c0.093,2.553,1.841,5.836,3.912,7.325l30.911,22.244c2.007,1.452,3.681,0.684,3.82-1.693c-0.083-0.046-0.157-0.102-0.231-0.157
						L251.976,166.223z M295.91,232.79c-2.1-1.452-3.746-4.708-3.681-7.261l0.481-18.277c0-0.092,0.009-0.176,0.018-0.268
						c-1.952-1.221-3.543-0.324-3.607,2.127l-0.481,18.277c-0.065,2.553,1.582,5.799,3.681,7.251l29.089,20.154
						c1.979,1.378,3.737,0.666,4.079-1.563c-0.157-0.074-0.324-0.176-0.481-0.287L295.91,232.79z M253.262,203.238
						c-2.1-1.452-3.875-4.699-3.959-7.251l-0.675-20.432v-0.083c-2.072-1.471-3.681-0.601-3.598,1.942l0.684,20.422
						c0.083,2.553,1.85,5.799,3.949,7.251l28.95,20.052c2.007,1.397,3.69,0.638,3.866-1.674c-0.092-0.056-0.185-0.111-0.277-0.176
						L253.262,203.238z M374.981,221.802l-31.42-23.419c-2.044-1.526-3.542-4.828-3.348-7.372l1.258-16.408
						c0.009-0.083,0.009-0.157,0.018-0.231c-1.85-1.147-3.422-0.287-3.607,2.081l-1.267,16.408
						c-0.194,2.553,1.314,5.855,3.358,7.381l31.41,23.41c1.951,1.452,3.764,0.786,4.181-1.48
						C375.37,222.07,375.176,221.95,374.981,221.802z M296.761,198.466c-2.072-1.489-3.7-4.773-3.635-7.325l0.481-18.267
						c0-0.065,0-0.13,0.009-0.185c-1.942-1.286-3.533-0.416-3.598,2.035L289.537,193c-0.065,2.553,1.563,5.827,3.635,7.316
						l30.559,21.985c1.97,1.415,3.718,0.712,4.033-1.563c-0.148-0.083-0.296-0.176-0.444-0.287L296.761,198.466z M341.148,230.404
						c-2.072-1.499-3.598-4.773-3.394-7.316l1.258-16.445c0.009-0.102,0.019-0.203,0.037-0.296c-1.868-1.101-3.45-0.213-3.626,2.155
						l-1.267,16.436c-0.194,2.553,1.332,5.827,3.404,7.316l30.31,21.819c1.952,1.406,3.764,0.731,4.208-1.48
						c-0.203-0.102-0.407-0.231-0.62-0.379L341.148,230.404z M338.733,262.452c-2.1-1.452-3.644-4.699-3.45-7.242l1.249-16.491
						c0.009-0.13,0.028-0.259,0.046-0.379c-1.878-1.036-3.459-0.12-3.635,2.229l-1.258,16.491c-0.194,2.553,1.35,5.79,3.45,7.251
						l29.2,20.219c1.961,1.36,3.774,0.694,4.245-1.471c-0.213-0.102-0.435-0.222-0.657-0.379L338.733,262.452z M297.612,164.142
						c-2.044-1.526-3.653-4.837-3.579-7.39l0.471-18.239c0-0.037,0-0.074,0.01-0.102c-1.943-1.35-3.533-0.518-3.598,1.952
						l-0.481,18.24c-0.065,2.553,1.545,5.864,3.589,7.39l32.021,23.863c1.97,1.471,3.709,0.758,3.996-1.572
						c-0.139-0.083-0.268-0.176-0.407-0.277L297.612,164.142z"/>
				</g>
				<path style="fill:#BA68C8;" d="M385.877,197.06L242.116,86.421c-4.051-3.117-10.914-3.57-15.344-1.017l-114.024,65.836
					c-2.196,1.268-3.294,2.913-3.296,4.551h3.703c0.009-0.102,0.287-0.684,1.443-1.341l114.024-65.836
					c1.295-0.749,3.034-1.156,4.883-1.156c2.433,0,4.81,0.712,6.354,1.896L383.62,199.992c0.925,0.703,1.443,1.517,1.406,2.164h3.7
					C388.756,200.375,387.815,198.547,385.877,197.06z"/>
				<path style="opacity:0.7;fill:#FFFFFF;" d="M385.877,197.06L242.116,86.421c-4.051-3.117-10.914-3.57-15.344-1.017
					l-114.024,65.836c-2.196,1.268-3.294,2.913-3.296,4.551h3.703c0.009-0.102,0.287-0.684,1.443-1.341l114.024-65.836
					c1.295-0.749,3.034-1.156,4.883-1.156c2.433,0,4.81,0.712,6.354,1.896L383.62,199.992c0.925,0.703,1.443,1.517,1.406,2.164h3.7
					C388.756,200.375,387.815,198.547,385.877,197.06z"/>
			</g>
		</g>
		<g>
			<g>
				<path style="fill:#BA68C8;" d="M285.153,255.922L112.821,160.35c-2.016-1.119-3.117-2.553-3.33-4.042l9.101,117.558
					c0,0.037,0,0.083,0.009,0.12c0.157,1.48,1.332,2.913,3.524,3.968l152.418,73.596c2.396,1.156,5.522,1.637,8.602,1.471
					l10.387-95.285C290.517,257.809,287.465,257.208,285.153,255.922z M237.788,234.63l44.988,24.806
					c2.238,1.239,3.839,4.301,3.589,6.835l-1.831,18.212c-0.037,0.361-0.111,0.694-0.213,0.99c-0.268-0.074-0.555-0.194-0.833-0.342
					l-43.286-23.049c-2.257-1.202-4.005-4.236-3.903-6.789l0.768-20.062c0.009-0.314,0.056-0.61,0.12-0.879
					C237.381,234.427,237.584,234.519,237.788,234.63z M225.181,289.191l-41.279-20.996c-2.275-1.156-4.171-4.162-4.218-6.715
					l-0.472-22.124c-0.009-0.314,0.019-0.611,0.065-0.879c0.139,0.065,0.277,0.13,0.425,0.204l42.953,22.725
					c2.257,1.193,4.023,4.236,3.94,6.789l-0.647,20.256c-0.009,0.361-0.065,0.694-0.148,0.999
					C225.597,289.386,225.394,289.293,225.181,289.191z M283.137,298.256l-1.841,18.193c-0.037,0.388-0.12,0.74-0.24,1.054
					c-0.277-0.074-0.564-0.185-0.851-0.333l-41.279-20.986c-2.275-1.156-4.042-4.171-3.94-6.715l0.767-20.052
					c0.01-0.342,0.056-0.657,0.139-0.943c0.204,0.065,0.407,0.157,0.62,0.268l43,22.753
					C281.777,292.688,283.396,295.712,283.137,298.256z M178.861,202.129l44.933,24.788c2.238,1.23,3.986,4.301,3.903,6.854
					l-0.647,20.256c-0.009,0.333-0.055,0.648-0.12,0.934c-0.203-0.065-0.407-0.157-0.611-0.268l-43.24-23.021
					c-2.257-1.193-4.125-4.236-4.18-6.789l-0.481-22.143c-0.01-0.287,0.009-0.555,0.046-0.805
					C178.593,201.99,178.722,202.055,178.861,202.129z M170.157,261.213l-41.279-20.996c-2.275-1.156-4.273-4.162-4.458-6.706
					l-1.757-24.214c-0.018-0.278-0.018-0.536,0-0.777c0.074,0.028,0.157,0.065,0.241,0.111l42.963,22.734
					c2.257,1.193,4.144,4.227,4.208,6.78l0.583,22.318c0.009,0.342-0.019,0.657-0.074,0.943
					C170.444,261.351,170.305,261.286,170.157,261.213z M120.036,169.692l44.85,24.732c2.238,1.23,4.107,4.301,4.171,6.854
					l0.601,22.346c0.009,0.305-0.009,0.592-0.055,0.851c-0.13-0.046-0.259-0.111-0.398-0.185l-43.203-23.003
					c-2.257-1.202-4.236-4.236-4.421-6.789l-1.757-24.215c-0.018-0.25-0.018-0.481-0.009-0.703
					C119.888,169.608,119.962,169.654,120.036,169.692z M170.962,292.854l-39.624-19.285c-2.294-1.119-4.31-4.088-4.495-6.632
					l-1.35-18.628c-0.019-0.314-0.019-0.601,0.019-0.869c0.083,0.028,0.176,0.074,0.268,0.12l41.002,20.709
					c2.285,1.147,4.19,4.153,4.255,6.706l0.462,17.065c0.009,0.361-0.018,0.694-0.093,0.999
					C171.258,292.993,171.11,292.928,170.962,292.854z M224.201,318.761l-39.596-19.266c-2.294-1.119-4.199-4.097-4.255-6.65
					l-0.361-16.889c-0.009-0.342,0.018-0.666,0.074-0.953c0.148,0.065,0.305,0.129,0.454,0.204l40.992,20.7
					c2.285,1.147,4.07,4.153,3.987,6.706l-0.49,15.335c-0.009,0.388-0.065,0.749-0.167,1.064
					C224.626,318.955,224.413,318.863,224.201,318.761z M277.393,344.65l-39.559-19.257c-2.294-1.11-4.079-4.088-3.977-6.641
					l0.583-15.159c0.018-0.37,0.065-0.712,0.157-1.017c0.213,0.055,0.426,0.148,0.648,0.259l40.992,20.7
					c2.275,1.156,3.922,4.144,3.663,6.687l-1.387,13.633c-0.037,0.407-0.13,0.777-0.259,1.11
					C277.966,344.9,277.679,344.789,277.393,344.65z"/>
				<path style="opacity:0.5;fill:#FFFFFF;" d="M285.153,255.922L112.821,160.35c-2.016-1.119-3.117-2.553-3.33-4.042l9.101,117.558
					c0,0.037,0,0.083,0.009,0.12c0.157,1.48,1.332,2.913,3.524,3.968l152.418,73.596c2.396,1.156,5.522,1.637,8.602,1.471
					l10.387-95.285C290.517,257.809,287.465,257.208,285.153,255.922z M237.788,234.63l44.988,24.806
					c2.238,1.239,3.839,4.301,3.589,6.835l-1.831,18.212c-0.037,0.361-0.111,0.694-0.213,0.99c-0.268-0.074-0.555-0.194-0.833-0.342
					l-43.286-23.049c-2.257-1.202-4.005-4.236-3.903-6.789l0.768-20.062c0.009-0.314,0.056-0.61,0.12-0.879
					C237.381,234.427,237.584,234.519,237.788,234.63z M225.181,289.191l-41.279-20.996c-2.275-1.156-4.171-4.162-4.218-6.715
					l-0.472-22.124c-0.009-0.314,0.019-0.611,0.065-0.879c0.139,0.065,0.277,0.13,0.425,0.204l42.953,22.725
					c2.257,1.193,4.023,4.236,3.94,6.789l-0.647,20.256c-0.009,0.361-0.065,0.694-0.148,0.999
					C225.597,289.386,225.394,289.293,225.181,289.191z M283.137,298.256l-1.841,18.193c-0.037,0.388-0.12,0.74-0.24,1.054
					c-0.277-0.074-0.564-0.185-0.851-0.333l-41.279-20.986c-2.275-1.156-4.042-4.171-3.94-6.715l0.767-20.052
					c0.01-0.342,0.056-0.657,0.139-0.943c0.204,0.065,0.407,0.157,0.62,0.268l43,22.753
					C281.777,292.688,283.396,295.712,283.137,298.256z M178.861,202.129l44.933,24.788c2.238,1.23,3.986,4.301,3.903,6.854
					l-0.647,20.256c-0.009,0.333-0.055,0.648-0.12,0.934c-0.203-0.065-0.407-0.157-0.611-0.268l-43.24-23.021
					c-2.257-1.193-4.125-4.236-4.18-6.789l-0.481-22.143c-0.01-0.287,0.009-0.555,0.046-0.805
					C178.593,201.99,178.722,202.055,178.861,202.129z M170.157,261.213l-41.279-20.996c-2.275-1.156-4.273-4.162-4.458-6.706
					l-1.757-24.214c-0.018-0.278-0.018-0.536,0-0.777c0.074,0.028,0.157,0.065,0.241,0.111l42.963,22.734
					c2.257,1.193,4.144,4.227,4.208,6.78l0.583,22.318c0.009,0.342-0.019,0.657-0.074,0.943
					C170.444,261.351,170.305,261.286,170.157,261.213z M120.036,169.692l44.85,24.732c2.238,1.23,4.107,4.301,4.171,6.854
					l0.601,22.346c0.009,0.305-0.009,0.592-0.055,0.851c-0.13-0.046-0.259-0.111-0.398-0.185l-43.203-23.003
					c-2.257-1.202-4.236-4.236-4.421-6.789l-1.757-24.215c-0.018-0.25-0.018-0.481-0.009-0.703
					C119.888,169.608,119.962,169.654,120.036,169.692z M170.962,292.854l-39.624-19.285c-2.294-1.119-4.31-4.088-4.495-6.632
					l-1.35-18.628c-0.019-0.314-0.019-0.601,0.019-0.869c0.083,0.028,0.176,0.074,0.268,0.12l41.002,20.709
					c2.285,1.147,4.19,4.153,4.255,6.706l0.462,17.065c0.009,0.361-0.018,0.694-0.093,0.999
					C171.258,292.993,171.11,292.928,170.962,292.854z M224.201,318.761l-39.596-19.266c-2.294-1.119-4.199-4.097-4.255-6.65
					l-0.361-16.889c-0.009-0.342,0.018-0.666,0.074-0.953c0.148,0.065,0.305,0.129,0.454,0.204l40.992,20.7
					c2.285,1.147,4.07,4.153,3.987,6.706l-0.49,15.335c-0.009,0.388-0.065,0.749-0.167,1.064
					C224.626,318.955,224.413,318.863,224.201,318.761z M277.393,344.65l-39.559-19.257c-2.294-1.11-4.079-4.088-3.977-6.641
					l0.583-15.159c0.018-0.37,0.065-0.712,0.157-1.017c0.213,0.055,0.426,0.148,0.648,0.259l40.992,20.7
					c2.275,1.156,3.922,4.144,3.663,6.687l-1.387,13.633c-0.037,0.407-0.13,0.777-0.259,1.11
					C277.966,344.9,277.679,344.789,277.393,344.65z"/>
				<path style="fill:#BA68C8;" d="M277.393,344.65l-39.559-19.257c-2.294-1.11-4.079-4.088-3.977-6.641l0.583-15.159
					c0.018-0.37,0.065-0.712,0.157-1.017c-1.988-0.657-3.57,0.49-3.663,2.793l-0.583,15.169c-0.092,2.553,1.684,5.522,3.987,6.641
					l39.55,19.257c1.933,0.934,3.709,0.268,4.366-1.471C277.966,344.9,277.679,344.789,277.393,344.65z M283.488,285.131
					l-43.286-23.049c-2.257-1.202-4.005-4.236-3.903-6.789l0.768-20.062c0.009-0.314,0.056-0.61,0.12-0.879
					c-1.961-0.749-3.533,0.342-3.626,2.664l-0.768,20.062c-0.102,2.544,1.646,5.587,3.903,6.789l43.286,23.049
					c1.933,1.027,3.709,0.37,4.338-1.443C284.052,285.399,283.766,285.279,283.488,285.131z M280.204,317.17l-41.279-20.986
					c-2.275-1.156-4.042-4.171-3.94-6.715l0.767-20.052c0.01-0.342,0.056-0.657,0.139-0.943c-1.979-0.712-3.552,0.416-3.644,2.728
					l-0.768,20.043c-0.102,2.553,1.665,5.559,3.94,6.724l41.289,20.986c1.933,0.98,3.7,0.324,4.347-1.452
					C280.778,317.429,280.491,317.318,280.204,317.17z M225.181,289.191l-41.279-20.996c-2.275-1.156-4.171-4.162-4.218-6.715
					l-0.472-22.124c-0.009-0.314,0.019-0.611,0.065-0.879c-2.053-0.842-3.616,0.277-3.57,2.664l0.472,22.124
					c0.056,2.553,1.942,5.559,4.218,6.715l41.279,20.996c1.951,0.99,3.635,0.305,4.125-1.526
					C225.597,289.386,225.394,289.293,225.181,289.191z M226.318,254.692l-43.24-23.021c-2.257-1.193-4.125-4.236-4.18-6.789
					l-0.481-22.143c-0.01-0.287,0.009-0.555,0.046-0.805c-2.044-0.897-3.607,0.194-3.551,2.59l0.481,22.133
					c0.055,2.553,1.933,5.596,4.181,6.798l43.249,23.021c1.952,1.045,3.635,0.351,4.107-1.517
					C226.726,254.895,226.522,254.803,226.318,254.692z M170.157,261.213l-41.279-20.996c-2.275-1.156-4.273-4.162-4.458-6.706
					l-1.757-24.214c-0.018-0.278-0.018-0.536,0-0.777c-2.137-0.999-3.681,0.111-3.505,2.562l1.757,24.214
					c0.185,2.544,2.183,5.549,4.458,6.706l41.279,20.986c1.97,1.008,3.579,0.287,3.931-1.582
					C170.444,261.351,170.305,261.286,170.157,261.213z M224.201,318.761l-39.596-19.266c-2.294-1.119-4.199-4.097-4.255-6.65
					l-0.361-16.889c-0.009-0.342,0.018-0.666,0.074-0.953c-2.063-0.795-3.635,0.352-3.579,2.738l0.361,16.889
					c0.056,2.553,1.961,5.531,4.255,6.65l39.596,19.266c1.942,0.953,3.626,0.259,4.144-1.535
					C224.626,318.955,224.413,318.863,224.201,318.761z M169.205,224.29l-43.203-23.003c-2.257-1.202-4.236-4.236-4.421-6.789
					l-1.757-24.215c-0.018-0.25-0.018-0.481-0.009-0.703c-2.127-1.054-3.672,0.019-3.496,2.488l1.757,24.214
					c0.185,2.553,2.164,5.587,4.421,6.789l43.203,23.003c1.989,1.054,3.598,0.333,3.903-1.6
					C169.473,224.428,169.343,224.364,169.205,224.29z M170.962,292.854l-39.624-19.285c-2.294-1.119-4.31-4.088-4.495-6.632
					l-1.35-18.628c-0.019-0.314-0.019-0.601,0.019-0.869c-2.137-0.934-3.7,0.203-3.524,2.645l1.36,18.637
					c0.185,2.544,2.192,5.513,4.486,6.632l39.624,19.285c1.979,0.962,3.589,0.241,3.949-1.6
					C171.258,292.993,171.11,292.928,170.962,292.854z"/>
				<path style="opacity:0.2;fill:#FFFFFF;" d="M277.393,344.65l-39.559-19.257c-2.294-1.11-4.079-4.088-3.977-6.641l0.583-15.159
					c0.018-0.37,0.065-0.712,0.157-1.017c-1.988-0.657-3.57,0.49-3.663,2.793l-0.583,15.169c-0.092,2.553,1.684,5.522,3.987,6.641
					l39.55,19.257c1.933,0.934,3.709,0.268,4.366-1.471C277.966,344.9,277.679,344.789,277.393,344.65z M283.488,285.131
					l-43.286-23.049c-2.257-1.202-4.005-4.236-3.903-6.789l0.768-20.062c0.009-0.314,0.056-0.61,0.12-0.879
					c-1.961-0.749-3.533,0.342-3.626,2.664l-0.768,20.062c-0.102,2.544,1.646,5.587,3.903,6.789l43.286,23.049
					c1.933,1.027,3.709,0.37,4.338-1.443C284.052,285.399,283.766,285.279,283.488,285.131z M280.204,317.17l-41.279-20.986
					c-2.275-1.156-4.042-4.171-3.94-6.715l0.767-20.052c0.01-0.342,0.056-0.657,0.139-0.943c-1.979-0.712-3.552,0.416-3.644,2.728
					l-0.768,20.043c-0.102,2.553,1.665,5.559,3.94,6.724l41.289,20.986c1.933,0.98,3.7,0.324,4.347-1.452
					C280.778,317.429,280.491,317.318,280.204,317.17z M225.181,289.191l-41.279-20.996c-2.275-1.156-4.171-4.162-4.218-6.715
					l-0.472-22.124c-0.009-0.314,0.019-0.611,0.065-0.879c-2.053-0.842-3.616,0.277-3.57,2.664l0.472,22.124
					c0.056,2.553,1.942,5.559,4.218,6.715l41.279,20.996c1.951,0.99,3.635,0.305,4.125-1.526
					C225.597,289.386,225.394,289.293,225.181,289.191z M226.318,254.692l-43.24-23.021c-2.257-1.193-4.125-4.236-4.18-6.789
					l-0.481-22.143c-0.01-0.287,0.009-0.555,0.046-0.805c-2.044-0.897-3.607,0.194-3.551,2.59l0.481,22.133
					c0.055,2.553,1.933,5.596,4.181,6.798l43.249,23.021c1.952,1.045,3.635,0.351,4.107-1.517
					C226.726,254.895,226.522,254.803,226.318,254.692z M170.157,261.213l-41.279-20.996c-2.275-1.156-4.273-4.162-4.458-6.706
					l-1.757-24.214c-0.018-0.278-0.018-0.536,0-0.777c-2.137-0.999-3.681,0.111-3.505,2.562l1.757,24.214
					c0.185,2.544,2.183,5.549,4.458,6.706l41.279,20.986c1.97,1.008,3.579,0.287,3.931-1.582
					C170.444,261.351,170.305,261.286,170.157,261.213z M224.201,318.761l-39.596-19.266c-2.294-1.119-4.199-4.097-4.255-6.65
					l-0.361-16.889c-0.009-0.342,0.018-0.666,0.074-0.953c-2.063-0.795-3.635,0.352-3.579,2.738l0.361,16.889
					c0.056,2.553,1.961,5.531,4.255,6.65l39.596,19.266c1.942,0.953,3.626,0.259,4.144-1.535
					C224.626,318.955,224.413,318.863,224.201,318.761z M169.205,224.29l-43.203-23.003c-2.257-1.202-4.236-4.236-4.421-6.789
					l-1.757-24.215c-0.018-0.25-0.018-0.481-0.009-0.703c-2.127-1.054-3.672,0.019-3.496,2.488l1.757,24.214
					c0.185,2.553,2.164,5.587,4.421,6.789l43.203,23.003c1.989,1.054,3.598,0.333,3.903-1.6
					C169.473,224.428,169.343,224.364,169.205,224.29z M170.962,292.854l-39.624-19.285c-2.294-1.119-4.31-4.088-4.495-6.632
					l-1.35-18.628c-0.019-0.314-0.019-0.601,0.019-0.869c-2.137-0.934-3.7,0.203-3.524,2.645l1.36,18.637
					c0.185,2.544,2.192,5.513,4.486,6.632l39.624,19.285c1.979,0.962,3.589,0.241,3.949-1.6
					C171.258,292.993,171.11,292.928,170.962,292.854z"/>
			</g>
			<g>
				<path style="fill:#BA68C8;" d="M385.202,207.317l-83.946,48.466c-2.136,1.23-4.911,1.887-7.723,1.952l-10.387,95.285
					c2.83-0.148,5.623-0.842,7.741-2.072l82.771-47.791c2.044-1.184,3.173-2.756,3.394-4.393l0.028-0.241l11.543-95.47
					C388.3,204.672,387.153,206.189,385.202,207.317z M374.842,248.273l-2.192,18.202c-0.305,2.534-2.34,5.624-4.551,6.9
					l-30.115,17.388c-0.324,0.185-0.629,0.315-0.916,0.407c-0.028-0.287-0.028-0.601,0.009-0.934l1.924-17.87
					c0.268-2.543,2.284-5.642,4.495-6.918l30.504-17.684c0.305-0.176,0.592-0.305,0.869-0.398
					C374.889,247.644,374.879,247.94,374.842,248.273z M330.65,273.828l-1.97,17.999c-0.277,2.543-2.294,5.633-4.504,6.909
					l-30.559,17.638c-0.314,0.176-0.61,0.314-0.897,0.407c-0.028-0.287-0.028-0.592,0.009-0.925l1.97-18.008
					c0.287-2.543,2.303-5.633,4.514-6.909l30.541-17.638c0.315-0.185,0.62-0.315,0.906-0.398
					C330.687,273.19,330.687,273.496,330.65,273.828z M378.681,216.335l-2.183,18.193c-0.305,2.534-2.349,5.624-4.56,6.909
					l-30.569,17.647c-0.305,0.176-0.601,0.305-0.879,0.398c-0.018-0.277-0.009-0.583,0.027-0.916l2.192-18.193
					c0.305-2.544,2.34-5.633,4.551-6.909l30.578-17.648c0.305-0.176,0.592-0.305,0.869-0.398
					C378.727,215.697,378.718,216.002,378.681,216.335z M334.442,241.863l-2.229,18.239c-0.314,2.534-2.358,5.624-4.569,6.9
					l-30.541,17.638c-0.314,0.185-0.62,0.314-0.906,0.398c-0.028-0.287-0.028-0.592,0.009-0.925l1.979-18.008
					c0.277-2.534,2.303-5.633,4.514-6.909l30.911-17.842c0.296-0.176,0.592-0.305,0.86-0.389
					C334.488,241.243,334.479,241.54,334.442,241.863z M289.74,343.059l1.48-13.476c0.277-2.534,2.294-5.633,4.504-6.909
					l30.624-17.675c0.324-0.194,0.638-0.333,0.934-0.416c0.037,0.287,0.037,0.592,0,0.934l-1.341,13.347
					c-0.259,2.534-2.257,5.633-4.467,6.909l-30.837,17.805c-0.315,0.185-0.62,0.314-0.906,0.407
					C289.703,343.697,289.703,343.392,289.74,343.059z M333.961,317.503l1.443-13.421c0.268-2.544,2.284-5.633,4.495-6.909
					l30.254-17.472c0.305-0.176,0.601-0.305,0.879-0.398c0.019,0.277,0.009,0.583-0.028,0.916l-1.646,13.633
					c-0.305,2.534-2.34,5.624-4.551,6.9l-29.94,17.268c-0.324,0.185-0.629,0.324-0.916,0.416
					C333.924,318.151,333.924,317.845,333.961,317.503z"/>
				<path style="opacity:0.3;fill:#FFFFFF;" d="M385.202,207.317l-83.946,48.466c-2.136,1.23-4.911,1.887-7.723,1.952
					l-10.387,95.285c2.83-0.148,5.623-0.842,7.741-2.072l82.771-47.791c2.044-1.184,3.173-2.756,3.394-4.393l0.028-0.241
					l11.543-95.47C388.3,204.672,387.153,206.189,385.202,207.317z M374.842,248.273l-2.192,18.202
					c-0.305,2.534-2.34,5.624-4.551,6.9l-30.115,17.388c-0.324,0.185-0.629,0.315-0.916,0.407c-0.028-0.287-0.028-0.601,0.009-0.934
					l1.924-17.87c0.268-2.543,2.284-5.642,4.495-6.918l30.504-17.684c0.305-0.176,0.592-0.305,0.869-0.398
					C374.889,247.644,374.879,247.94,374.842,248.273z M330.65,273.828l-1.97,17.999c-0.277,2.543-2.294,5.633-4.504,6.909
					l-30.559,17.638c-0.314,0.176-0.61,0.314-0.897,0.407c-0.028-0.287-0.028-0.592,0.009-0.925l1.97-18.008
					c0.287-2.543,2.303-5.633,4.514-6.909l30.541-17.638c0.315-0.185,0.62-0.315,0.906-0.398
					C330.687,273.19,330.687,273.496,330.65,273.828z M378.681,216.335l-2.183,18.193c-0.305,2.534-2.349,5.624-4.56,6.909
					l-30.569,17.647c-0.305,0.176-0.601,0.305-0.879,0.398c-0.018-0.277-0.009-0.583,0.027-0.916l2.192-18.193
					c0.305-2.544,2.34-5.633,4.551-6.909l30.578-17.648c0.305-0.176,0.592-0.305,0.869-0.398
					C378.727,215.697,378.718,216.002,378.681,216.335z M334.442,241.863l-2.229,18.239c-0.314,2.534-2.358,5.624-4.569,6.9
					l-30.541,17.638c-0.314,0.185-0.62,0.314-0.906,0.398c-0.028-0.287-0.028-0.592,0.009-0.925l1.979-18.008
					c0.277-2.534,2.303-5.633,4.514-6.909l30.911-17.842c0.296-0.176,0.592-0.305,0.86-0.389
					C334.488,241.243,334.479,241.54,334.442,241.863z M289.74,343.059l1.48-13.476c0.277-2.534,2.294-5.633,4.504-6.909
					l30.624-17.675c0.324-0.194,0.638-0.333,0.934-0.416c0.037,0.287,0.037,0.592,0,0.934l-1.341,13.347
					c-0.259,2.534-2.257,5.633-4.467,6.909l-30.837,17.805c-0.315,0.185-0.62,0.314-0.906,0.407
					C289.703,343.697,289.703,343.392,289.74,343.059z M333.961,317.503l1.443-13.421c0.268-2.544,2.284-5.633,4.495-6.909
					l30.254-17.472c0.305-0.176,0.601-0.305,0.879-0.398c0.019,0.277,0.009,0.583-0.028,0.916l-1.646,13.633
					c-0.305,2.534-2.34,5.624-4.551,6.9l-29.94,17.268c-0.324,0.185-0.629,0.324-0.916,0.416
					C333.924,318.151,333.924,317.845,333.961,317.503z"/>
				<path style="fill:#BA68C8;" d="M334.47,240.966c0.018,0.277,0.009,0.574-0.028,0.897l-2.229,18.239
					c-0.314,2.534-2.358,5.624-4.569,6.9l-30.541,17.638c-0.314,0.185-0.62,0.314-0.906,0.398c0.157,1.85,1.591,2.47,3.515,1.36
					l30.541-17.629c2.21-1.276,4.254-4.366,4.569-6.9l2.229-18.239C337.318,241.438,336.199,240.383,334.47,240.966z
					 M378.709,215.42c0.019,0.278,0.009,0.583-0.028,0.916l-2.183,18.193c-0.305,2.534-2.349,5.624-4.56,6.909l-30.569,17.647
					c-0.305,0.176-0.601,0.305-0.879,0.398c0.139,1.85,1.554,2.47,3.487,1.36l30.568-17.647c2.211-1.276,4.246-4.366,4.551-6.9
					l2.192-18.202C381.548,215.91,380.438,214.846,378.709,215.42z M330.659,272.904c0.028,0.287,0.028,0.592-0.009,0.925
					l-1.97,17.999c-0.277,2.543-2.294,5.633-4.504,6.909l-30.559,17.638c-0.314,0.176-0.61,0.314-0.897,0.407
					c0.157,1.841,1.591,2.47,3.505,1.36l30.55-17.638c2.211-1.276,4.236-4.375,4.514-6.909l1.97-18.008
					C333.499,273.412,332.379,272.349,330.659,272.904z M374.87,247.367c0.019,0.277,0.009,0.573-0.028,0.906l-2.192,18.202
					c-0.305,2.534-2.34,5.624-4.551,6.9l-30.115,17.388c-0.324,0.185-0.629,0.315-0.916,0.407c0.157,1.841,1.6,2.469,3.515,1.36
					l30.115-17.388c2.211-1.276,4.255-4.366,4.56-6.909l2.192-18.193C377.71,247.857,376.6,246.793,374.87,247.367z
					 M327.283,304.582c0.037,0.287,0.037,0.592,0,0.934l-1.341,13.347c-0.259,2.534-2.257,5.633-4.467,6.909l-30.837,17.805
					c-0.315,0.185-0.62,0.314-0.906,0.407c0.157,1.841,1.591,2.47,3.515,1.36l30.837-17.805c2.211-1.276,4.208-4.375,4.467-6.918
					l1.341-13.337C330.113,305.119,328.994,304.046,327.283,304.582z M371.032,279.304c0.019,0.277,0.009,0.583-0.028,0.916
					l-1.646,13.633c-0.305,2.534-2.34,5.624-4.551,6.9l-29.94,17.268c-0.324,0.185-0.629,0.324-0.916,0.416
					c0.166,1.831,1.6,2.46,3.515,1.35l29.94-17.268c2.211-1.276,4.255-4.366,4.56-6.9l1.637-13.633
					C373.862,279.794,372.761,278.74,371.032,279.304z"/>
			</g>
			<path style="fill:#BA68C8;" d="M385.026,202.156c-0.046,0.647-0.666,1.378-1.674,1.961l-83.946,48.466
				c-1.609,0.925-3.931,1.461-6.363,1.461c-2.322,0-4.541-0.49-6.095-1.35l-172.331-95.581c-1.156-0.638-1.452-1.212-1.461-1.323
				h-3.703c-0.002,1.66,1.122,3.312,3.37,4.56l172.332,95.572c4.468,2.479,11.682,2.423,16.103-0.139l83.946-48.466
				c2.306-1.331,3.492-3.219,3.525-5.161H385.026z"/>
			<path style="opacity:0.7;fill:#FFFFFF;" d="M385.026,202.156c-0.046,0.647-0.666,1.378-1.674,1.961l-83.946,48.466
				c-1.609,0.925-3.931,1.461-6.363,1.461c-2.322,0-4.541-0.49-6.095-1.35l-172.331-95.581c-1.156-0.638-1.452-1.212-1.461-1.323
				h-3.703c-0.002,1.66,1.122,3.312,3.37,4.56l172.332,95.572c4.468,2.479,11.682,2.423,16.103-0.139l83.946-48.466
				c2.306-1.331,3.492-3.219,3.525-5.161H385.026z"/>
		</g>
	</g>
</g>
<g id="Sparkles">
	<path id="Sparkles_00000039843121843825292390000008878855821560497058_" style="fill:#F0F0F0;" d="M86.269,206.445l-8.024-0.887
		c-0.774-0.084-1.385-0.71-1.455-1.485l-0.923-10.235c-0.024-0.281-0.259-0.494-0.54-0.494s-0.516,0.213-0.54,0.494l-0.923,10.237
		c-0.072,0.773-0.681,1.399-1.455,1.483l-8.022,0.887c-0.275,0.032-0.482,0.263-0.482,0.54c0,0.277,0.207,0.509,0.482,0.54
		l8.022,0.887c0.774,0.084,1.386,0.71,1.455,1.485l0.923,10.235c0.024,0.281,0.259,0.494,0.54,0.494s0.516-0.213,0.54-0.494
		l0.923-10.237c0.07-0.773,0.681-1.399,1.455-1.483l8.024-0.887c0.275-0.032,0.482-0.263,0.482-0.54
		C86.751,206.707,86.544,206.476,86.269,206.445z M78.125,207.331c-1.284,0.142-2.3,1.178-2.416,2.466l-0.383,4.24l-0.382-4.238
		c-0.116-1.29-1.133-2.326-2.416-2.468l-3.141-0.347l3.141-0.347c1.284-0.141,2.301-1.178,2.416-2.466v-0.002l0.382-4.238
		l0.383,4.238c0.116,1.29,1.132,2.327,2.416,2.468l3.142,0.347L78.125,207.331z M355.332,96.384l-11.496-1.271
		c-1.225-0.135-2.194-1.124-2.303-2.351l-1.322-14.667c-0.025-0.273-0.253-0.483-0.527-0.483c-0.275,0-0.503,0.209-0.528,0.483
		l-1.322,14.667c-0.11,1.227-1.081,2.216-2.305,2.351l-11.495,1.271c-0.269,0.03-0.472,0.257-0.472,0.527
		c0,0.27,0.203,0.497,0.472,0.526l11.495,1.27c1.224,0.136,2.195,1.125,2.305,2.351l1.322,14.668
		c0.025,0.273,0.253,0.482,0.528,0.482c0.274,0,0.502-0.209,0.527-0.482l1.322-14.668c0.11-1.226,1.079-2.215,2.303-2.351
		l11.496-1.27c0.268-0.03,0.472-0.257,0.472-0.526C355.804,96.641,355.6,96.413,355.332,96.384z M343.72,97.654
		c-1.724,0.192-3.087,1.583-3.243,3.309l-0.793,8.814l-0.794-8.814c-0.156-1.726-1.52-3.118-3.244-3.309l-6.731-0.743l6.731-0.744
		c1.724-0.19,3.088-1.582,3.244-3.31l0.794-8.813l0.793,8.813c0.156,1.728,1.519,3.119,3.243,3.31l6.731,0.744L343.72,97.654z
		 M35.372,126.875l5.115,0.566c0.493,0.053,0.884,0.452,0.928,0.947l0.589,6.526c0.015,0.179,0.165,0.315,0.344,0.315
		c0.179,0,0.329-0.136,0.344-0.315l0.589-6.527c0.045-0.493,0.435-0.892,0.928-0.946l5.116-0.566
		c0.175-0.02,0.307-0.168,0.307-0.345c0-0.177-0.132-0.324-0.307-0.344l-5.116-0.566c-0.493-0.053-0.883-0.452-0.928-0.947
		l-0.589-6.526c-0.015-0.179-0.165-0.315-0.344-0.315c-0.179,0-0.329,0.136-0.344,0.315l-0.589,6.527
		c-0.046,0.493-0.435,0.892-0.928,0.946l-5.115,0.566c-0.175,0.02-0.308,0.168-0.308,0.344
		C35.064,126.707,35.196,126.854,35.372,126.875z M40.563,126.309c0.818-0.09,1.467-0.751,1.541-1.572v-0.001l0.244-2.702
		l0.244,2.702c0.074,0.823,0.722,1.484,1.541,1.574l2.003,0.221l-2.003,0.221c-0.819,0.09-1.467,0.751-1.541,1.572l-0.244,2.703
		l-0.244-2.702c-0.074-0.822-0.722-1.483-1.541-1.574l-2.003-0.221L40.563,126.309z M128.967,52.115l5.115,0.566
		c0.493,0.053,0.884,0.453,0.928,0.947l0.589,6.526c0.015,0.179,0.165,0.315,0.344,0.315c0.179,0,0.329-0.136,0.344-0.315
		l0.589-6.527c0.045-0.493,0.435-0.892,0.928-0.946l5.116-0.566c0.175-0.02,0.307-0.168,0.307-0.345s-0.132-0.324-0.307-0.344
		l-5.116-0.566c-0.493-0.053-0.883-0.452-0.928-0.947l-0.589-6.526c-0.015-0.179-0.165-0.315-0.344-0.315
		c-0.179,0-0.329,0.136-0.344,0.315l-0.589,6.527c-0.046,0.493-0.435,0.892-0.928,0.946l-5.115,0.566
		c-0.175,0.02-0.308,0.168-0.308,0.344S128.791,52.095,128.967,52.115z M134.158,51.549c0.818-0.09,1.467-0.751,1.541-1.572v-0.001
		l0.244-2.702l0.244,2.702c0.074,0.822,0.722,1.484,1.54,1.574l2.003,0.221l-2.003,0.221c-0.819,0.09-1.467,0.751-1.54,1.573
		l-0.244,2.703l-0.244-2.702c-0.074-0.822-0.722-1.483-1.541-1.574l-2.003-0.221L134.158,51.549z M55.126,143.298l5.115,0.566
		c0.493,0.053,0.884,0.452,0.928,0.947l0.589,6.526c0.015,0.179,0.165,0.315,0.344,0.315c0.179,0,0.329-0.136,0.345-0.315
		l0.589-6.527c0.045-0.493,0.435-0.892,0.928-0.946l5.116-0.566c0.175-0.02,0.307-0.168,0.307-0.344s-0.132-0.324-0.307-0.344
		l-5.116-0.566c-0.493-0.053-0.883-0.452-0.928-0.947l-0.589-6.526c-0.015-0.179-0.165-0.315-0.345-0.315
		c-0.179,0-0.329,0.136-0.344,0.315l-0.589,6.527c-0.046,0.493-0.435,0.892-0.928,0.946l-5.115,0.566
		c-0.175,0.02-0.308,0.168-0.308,0.344S54.95,143.278,55.126,143.298z M60.317,142.733c0.818-0.09,1.467-0.751,1.541-1.572v-0.001
		l0.244-2.702l0.244,2.702c0.074,0.823,0.722,1.484,1.541,1.574l2.003,0.221l-2.003,0.221c-0.819,0.09-1.467,0.751-1.541,1.572
		l-0.244,2.703l-0.244-2.702c-0.074-0.822-0.722-1.483-1.541-1.574l-2.003-0.221L60.317,142.733z M401.761,144.303l5.45,0.603
		c0.526,0.057,0.942,0.482,0.989,1.009l0.627,6.954c0.016,0.191,0.176,0.336,0.367,0.336c0.191,0,0.351-0.145,0.367-0.336
		l0.627-6.955c0.048-0.526,0.463-0.951,0.989-1.008l5.452-0.603c0.187-0.021,0.328-0.179,0.328-0.367
		c0-0.188-0.141-0.345-0.328-0.367l-5.452-0.603c-0.526-0.057-0.941-0.482-0.989-1.009l-0.627-6.954
		c-0.016-0.191-0.176-0.336-0.367-0.336c-0.191,0-0.35,0.145-0.367,0.336l-0.627,6.955c-0.049,0.526-0.463,0.951-0.989,1.008
		l-5.45,0.603c-0.187,0.021-0.328,0.179-0.328,0.367C401.433,144.124,401.574,144.281,401.761,144.303z M407.293,143.7
		c0.872-0.096,1.563-0.8,1.642-1.675v-0.002l0.26-2.879l0.26,2.879c0.078,0.877,0.769,1.581,1.642,1.677l2.135,0.236l-2.135,0.236
		c-0.873,0.096-1.563,0.801-1.642,1.676l-0.26,2.881l-0.26-2.88c-0.079-0.876-0.77-1.581-1.642-1.677l-2.134-0.236L407.293,143.7z
		 M281.373,64.005l4.74,0.525c0.456,0.05,0.818,0.419,0.858,0.876l0.545,6.048c0.015,0.166,0.153,0.292,0.32,0.292
		c0.166,0,0.305-0.127,0.32-0.292l0.545-6.048c0.041-0.457,0.403-0.826,0.859-0.876l4.739-0.525
		c0.163-0.018,0.286-0.156,0.286-0.319c0-0.163-0.123-0.301-0.286-0.319l-4.739-0.524c-0.457-0.05-0.819-0.419-0.859-0.876
		l-0.545-6.047c-0.015-0.165-0.154-0.292-0.32-0.292c-0.166,0-0.304,0.127-0.32,0.292l-0.545,6.047
		c-0.041,0.457-0.402,0.826-0.858,0.876l-4.74,0.524c-0.163,0.018-0.286,0.155-0.286,0.319
		C281.087,63.849,281.21,63.987,281.373,64.005z M286.182,63.481c0.758-0.084,1.359-0.696,1.427-1.457l0.226-2.505l0.226,2.505
		c0.069,0.76,0.669,1.373,1.428,1.457l1.857,0.205l-1.857,0.206c-0.759,0.084-1.359,0.696-1.428,1.457l-0.226,2.504l-0.226-2.504
		c-0.069-0.76-0.669-1.373-1.427-1.457l-1.857-0.206L286.182,63.481z M373.937,61.13l5.564,0.616
		c0.536,0.059,0.96,0.492,1.008,1.029l0.64,7.099c0.017,0.195,0.18,0.343,0.375,0.343c0.195,0,0.357-0.149,0.375-0.343l0.64-7.099
		c0.048-0.537,0.473-0.97,1.009-1.029l5.563-0.616c0.191-0.021,0.335-0.183,0.335-0.374s-0.145-0.353-0.335-0.374l-5.563-0.615
		c-0.536-0.059-0.961-0.492-1.009-1.029l-0.64-7.099c-0.018-0.194-0.18-0.343-0.375-0.343c-0.195,0-0.358,0.149-0.375,0.343
		l-0.64,7.099c-0.048,0.537-0.472,0.97-1.008,1.029l-5.564,0.615c-0.191,0.021-0.336,0.183-0.336,0.374
		S373.746,61.109,373.937,61.13z M379.584,60.514c0.89-0.098,1.595-0.818,1.676-1.71l0.265-2.94l0.265,2.94
		c0.081,0.892,0.786,1.612,1.677,1.71l2.18,0.241l-2.18,0.242c-0.891,0.098-1.596,0.818-1.677,1.71l-0.265,2.94l-0.265-2.94
		c-0.081-0.893-0.786-1.612-1.676-1.71l-2.18-0.242L379.584,60.514z M465.741,235.305l-4.326-0.479
		c-0.417-0.045-0.747-0.382-0.785-0.801l-0.498-5.518c-0.013-0.152-0.14-0.267-0.291-0.267c-0.152,0-0.278,0.115-0.291,0.267
		l-0.496,5.519c-0.038,0.417-0.369,0.755-0.786,0.799l-4.325,0.479c-0.148,0.017-0.26,0.142-0.26,0.291s0.112,0.274,0.26,0.291
		l4.325,0.478c0.417,0.045,0.748,0.383,0.786,0.801l0.496,5.518c0.013,0.152,0.14,0.267,0.291,0.267
		c0.152,0,0.278-0.115,0.291-0.267l0.498-5.519c0.037-0.417,0.368-0.755,0.785-0.8l4.326-0.478c0.148-0.017,0.26-0.142,0.26-0.291
		S465.889,235.322,465.741,235.305z M461.35,235.783c-0.692,0.076-1.241,0.635-1.303,1.329l-0.206,2.283l-0.205-2.282
		c-0.062-0.695-0.612-1.254-1.304-1.33l-1.693-0.187l1.693-0.187c0.693-0.076,1.242-0.635,1.304-1.33c0-0.001,0-0.001,0-0.001
		l0.205-2.282l0.206,2.282c0.062,0.695,0.61,1.254,1.303,1.331l1.694,0.187L461.35,235.783z M49.325,232.817l-5.116-0.566
		c-0.493-0.053-0.883-0.452-0.928-0.947l-0.588-6.526c-0.015-0.179-0.165-0.315-0.344-0.315c-0.18,0-0.329,0.136-0.345,0.315
		l-0.589,6.527c-0.046,0.493-0.435,0.892-0.928,0.946l-5.115,0.566c-0.175,0.02-0.307,0.168-0.307,0.344
		c0,0.177,0.132,0.324,0.307,0.344l5.115,0.566c0.493,0.053,0.884,0.452,0.928,0.947l0.589,6.526
		c0.015,0.179,0.165,0.315,0.345,0.315c0.179,0,0.329-0.136,0.344-0.315l0.588-6.527c0.045-0.493,0.435-0.892,0.928-0.946
		l5.116-0.566c0.175-0.02,0.307-0.168,0.307-0.344C49.633,232.984,49.5,232.837,49.325,232.817z M44.133,233.383
		c-0.819,0.09-1.467,0.751-1.541,1.572l-0.244,2.703l-0.244-2.702c-0.074-0.822-0.722-1.483-1.541-1.574l-2.003-0.221l2.003-0.221
		c0.819-0.09,1.467-0.751,1.541-1.572v-0.001l0.244-2.702l0.244,2.702c0.074,0.822,0.722,1.483,1.541,1.574l2.003,0.221
		L44.133,233.383z M441.672,202.84l-8.008-0.884c-0.773-0.086-1.385-0.709-1.453-1.482l-0.922-10.221
		c-0.026-0.28-0.26-0.493-0.54-0.493c-0.28,0-0.514,0.213-0.54,0.493l-0.922,10.221c-0.069,0.773-0.68,1.396-1.452,1.482
		l-8.01,0.884c-0.274,0.03-0.482,0.263-0.482,0.539c0,0.276,0.207,0.509,0.482,0.539l8.01,0.886
		c0.772,0.086,1.383,0.709,1.452,1.482l0.922,10.22c0.026,0.28,0.26,0.493,0.54,0.493c0.28,0,0.514-0.213,0.54-0.493l0.922-10.22
		c0.069-0.773,0.68-1.396,1.453-1.482l8.008-0.886c0.274-0.03,0.482-0.263,0.482-0.539
		C442.154,203.103,441.947,202.871,441.672,202.84z M433.544,203.726c-1.284,0.142-2.298,1.178-2.414,2.462l-0.381,4.234
		l-0.382-4.234c-0.116-1.284-1.13-2.319-2.412-2.462l-3.135-0.347l3.135-0.346c1.281-0.141,2.296-1.177,2.412-2.462l0.382-4.234
		l0.381,4.234c0.116,1.285,1.13,2.321,2.414,2.462l3.135,0.346L433.544,203.726z M66.923,45.704l-5.116-0.566
		c-0.493-0.054-0.883-0.453-0.928-0.947l-0.588-6.526c-0.015-0.179-0.166-0.315-0.345-0.315c-0.179,0-0.329,0.136-0.344,0.315
		l-0.589,6.527c-0.046,0.493-0.435,0.892-0.928,0.946l-5.115,0.566c-0.175,0.02-0.308,0.168-0.308,0.344
		c0,0.177,0.132,0.324,0.308,0.344l5.115,0.566c0.493,0.053,0.883,0.452,0.928,0.947l0.589,6.526
		c0.015,0.179,0.165,0.315,0.344,0.315c0.179,0,0.329-0.136,0.345-0.315l0.588-6.527c0.045-0.493,0.435-0.892,0.928-0.946
		l5.116-0.566c0.175-0.02,0.307-0.168,0.307-0.344C67.23,45.872,67.098,45.725,66.923,45.704z M61.73,46.27
		c-0.819,0.09-1.467,0.751-1.541,1.572l-0.244,2.704l-0.244-2.702c-0.073-0.822-0.722-1.483-1.541-1.574l-2.003-0.221l2.003-0.221
		c0.819-0.09,1.467-0.751,1.541-1.572v-0.001l0.244-2.702l0.244,2.702c0.074,0.823,0.722,1.483,1.541,1.574l2.003,0.221L61.73,46.27
		z M464.575,115.463l-11.155-1.233c-1.188-0.131-2.13-1.091-2.237-2.281L449.9,97.716c-0.024-0.266-0.246-0.467-0.512-0.467
		c-0.266,0-0.488,0.202-0.512,0.467l-1.283,14.233c-0.107,1.19-1.048,2.15-2.236,2.281l-11.154,1.233
		c-0.26,0.028-0.457,0.249-0.457,0.511c0,0.261,0.197,0.482,0.457,0.511l11.154,1.234c1.188,0.131,2.13,1.09,2.236,2.281
		l1.283,14.233c0.024,0.266,0.246,0.468,0.512,0.468c0.265,0,0.488-0.202,0.512-0.468L451.183,120
		c0.107-1.191,1.049-2.15,2.237-2.281l11.155-1.234c0.26-0.029,0.457-0.25,0.457-0.511
		C465.032,115.713,464.835,115.491,464.575,115.463z M453.306,116.698c-1.672,0.184-2.995,1.535-3.146,3.21l-0.771,8.554
		l-0.771-8.554c-0.152-1.676-1.475-3.026-3.147-3.21l-6.535-0.723l6.535-0.722c1.671-0.184,2.995-1.535,3.147-3.211l0.771-8.554
		l0.771,8.554c0.152,1.676,1.475,3.026,3.146,3.211l6.536,0.722L453.306,116.698z M98.801,70.876l-8.86-0.98
		c-0.854-0.092-1.53-0.784-1.607-1.64l-1.019-11.301c-0.027-0.31-0.286-0.546-0.597-0.546c-0.31,0-0.57,0.236-0.596,0.546
		l-1.019,11.303c-0.079,0.854-0.753,1.545-1.607,1.637l-8.858,0.98c-0.303,0.035-0.532,0.29-0.532,0.596
		c0,0.306,0.229,0.561,0.532,0.597l8.858,0.98c0.854,0.092,1.53,0.784,1.607,1.64l1.019,11.301c0.026,0.31,0.286,0.546,0.596,0.546
		c0.31,0,0.57-0.235,0.597-0.546l1.019-11.303c0.077-0.854,0.753-1.545,1.607-1.637l8.86-0.98c0.304-0.035,0.533-0.291,0.533-0.597
		C99.334,71.166,99.105,70.911,98.801,70.876z M89.809,71.855c-1.417,0.156-2.54,1.301-2.668,2.723l-0.423,4.682l-0.423-4.68
		c-0.127-1.424-1.25-2.569-2.667-2.725l-3.469-0.383l3.469-0.383c1.417-0.156,2.54-1.3,2.667-2.723v-0.002l0.423-4.679l0.423,4.679
		c0.128,1.424,1.25,2.569,2.668,2.725l3.469,0.383L89.809,71.855z"/>
</g>
</svg>
