<?xml version="1.0" encoding="utf-8"?>
<!-- Generator: Adobe Illustrator 27.5.0, SVG Export Plug-In . SVG Version: 6.00 Build 0)  -->
<svg version="1.1" xmlns="http://www.w3.org/2000/svg" xmlns:xlink="http://www.w3.org/1999/xlink" x="0px" y="0px"
	 viewBox="0 0 500 500" style="enable-background:new 0 0 500 500;" xml:space="preserve">
<g id="BACKGROUND">
	<rect style="fill:#FFFFFF;" width="500" height="500"/>
</g>
<g id="OBJECTS">
	<g>
		<path style="fill:#455A64;" d="M458.756,426.927L458.756,426.927c0-5.001-4.054-9.055-9.055-9.055H75.766
			c-5.001,0-9.055,4.054-9.055,9.055v0c0,5.001,4.054,9.055,9.055,9.055h163.301c5.001,0,9.055,4.054,9.055,9.055v0
			c0,5.001-4.054,9.055-9.055,9.055h-17.562c-5.001,0-9.055,4.054-9.055,9.055l0,0c0,5.001,4.054,9.055,9.055,9.055H407.44
			c5.001,0,9.055-4.054,9.055-9.055l0,0c0-5.001-4.054-9.055-9.055-9.055h-96.718c-5.001,0-9.055-4.054-9.055-9.055v0
			c0-5.001,4.054-9.055,9.055-9.055h138.979C454.701,435.982,458.756,431.928,458.756,426.927z"/>
		<g>
			<path style="fill:#E1F5FE;" d="M110.048,334.466c-58.555-1.043-7.343-66.729-35.262-84.493
				c-58.408-37.164-58.296-78.64-12.169-88.974c42.717-9.57,67.095,6.038,108.014-78.062
				c23.382-48.056,69.247-62.744,130.836,19.216c42.064,55.977,75.988,26.699,101.378,15.02
				c38.644-17.775,71.641-19.307,45.992,67.758c-7.919,26.883-18.567,41.122,0.25,81.169
				c59.399,126.411-82.654,100.108-104.177,48.787C290.6,185.39,226.215,336.534,110.048,334.466z"/>
			<g>
				<rect x="329.281" y="262.51" style="fill:#004A7C;" width="76.963" height="155.786"/>
				<rect x="128.986" y="262.51" style="fill:#0277BD;" width="206.218" height="155.786"/>
				<rect x="329.281" y="247.253" style="fill:#01579B;" width="85.439" height="155.786"/>
				<rect x="120.51" y="247.253" style="fill:#0277BD;" width="214.693" height="155.786"/>
				<polygon style="fill:#0288D1;" points="120.51,403.04 335.204,403.04 335.204,332.199 				"/>
				<g>
					<rect x="110.139" y="247.253" style="fill:#0288D1;" width="225.065" height="17.727"/>
					<rect x="110.139" y="247.253" style="fill:#29B6F6;" width="225.065" height="4.432"/>
				</g>
				<rect x="335.204" y="247.253" style="fill:#0277BD;" width="88.571" height="17.727"/>
				<g>
					<rect x="142.774" y="223.847" style="fill:#CFD8DC;" width="145.573" height="23.406"/>
					<rect x="142.774" y="223.847" style="fill:#ECEFF1;" width="145.573" height="5.852"/>
				</g>
				<rect x="288.348" y="223.847" style="fill:#B0BEC5;" width="57.288" height="23.406"/>
				<rect x="288.348" y="223.847" style="fill:#CFD8DC;" width="57.288" height="5.852"/>
				<rect x="335.204" y="247.253" style="fill:#039BE5;" width="88.571" height="4.432"/>
				<polygon style="fill:#01579B;" points="335.204,264.98 120.51,264.98 120.51,277.468 				"/>
				<g>
					<path style="fill:#B3E5FC;" d="M308.482,138.701H170.068c-4.985,0-9.025,4.041-9.025,9.025v76.12h54.477v-8.382
						c0-5.611,4.548-10.159,10.159-10.159h27.194c5.611,0,10.159,4.548,10.159,10.159v8.382h54.477v-76.12
						C317.508,142.742,313.467,138.701,308.482,138.701z"/>
					<g>
						<defs>
							<path id="SVGID_1_" d="M308.482,138.701H170.068c-4.985,0-9.025,4.041-9.025,9.025v76.12h54.477v-8.382
								c0-5.611,4.548-10.159,10.159-10.159h27.194c5.611,0,10.159,4.548,10.159,10.159v8.382h54.477v-76.12
								C317.508,142.742,313.467,138.701,308.482,138.701z"/>
						</defs>
						<clipPath id="SVGID_00000006667958526335561470000004531403333767473582_">
							<use xlink:href="#SVGID_1_"  style="overflow:visible;"/>
						</clipPath>
						<g style="clip-path:url(#SVGID_00000006667958526335561470000004531403333767473582_);">
							<polygon style="opacity:0.57;fill:#E1F5FE;" points="169.807,257.414 148.265,244.345 227.03,103.088 248.572,116.157 
															"/>
							<polygon style="opacity:0.57;fill:#E1F5FE;" points="136.043,252.644 130.227,249.115 208.992,107.858 214.808,111.386 
															"/>
						</g>
					</g>
					<g>
						<path style="fill:#81D4FA;" d="M215.519,215.465v8.382h2.955v-8.382c0-5.611,4.548-10.159,10.159-10.159h-2.955
							C220.067,205.307,215.519,209.855,215.519,215.465z"/>
						<path style="fill:#81D4FA;" d="M311.437,138.701h-2.955c4.985,0,9.026,4.041,9.026,9.025v76.12h2.955v-76.12
							C320.462,142.742,316.421,138.701,311.437,138.701z"/>
					</g>
				</g>
			</g>
			<g>
				<rect x="367.536" y="229.979" style="fill:#37474F;" width="6.205" height="16.788"/>
				<rect x="361.96" y="243.752" style="fill:#455A64;" width="17.356" height="3.502"/>
				<g>
					<rect x="360.579" y="178.688" style="fill:#37474F;" width="20.119" height="4.587"/>
					<path style="fill:#455A64;" d="M380.4,232.956h-19.524c-2.362,0-4.278-1.915-4.278-4.278v-46.574h28.079v46.574
						C384.678,231.041,382.763,232.956,380.4,232.956z"/>
					<rect x="359.231" y="185.823" style="fill:#0277BD;" width="22.814" height="18.742"/>
					<polygon style="fill:#0288D1;" points="382.045,204.565 359.231,204.565 359.231,193.721 					"/>
					<g>
						<rect x="359.231" y="207.693" style="fill:#0277BD;" width="6.205" height="2.778"/>
						<rect x="367.536" y="207.693" style="fill:#0277BD;" width="6.205" height="2.778"/>
						<rect x="375.841" y="207.693" style="fill:#0277BD;" width="6.205" height="2.778"/>
					</g>
					<g>
						<rect x="359.231" y="213.195" style="fill:#0277BD;" width="6.205" height="2.778"/>
						<rect x="367.536" y="213.195" style="fill:#0277BD;" width="6.205" height="2.778"/>
						<rect x="375.841" y="213.195" style="fill:#0277BD;" width="6.205" height="2.778"/>
					</g>
					<g>
						<rect x="359.231" y="218.697" style="fill:#0277BD;" width="6.205" height="2.778"/>
						<rect x="367.536" y="218.697" style="fill:#0277BD;" width="6.205" height="2.778"/>
						<rect x="375.841" y="218.697" style="fill:#0277BD;" width="6.205" height="2.778"/>
					</g>
					<g>
						<rect x="359.231" y="224.199" style="fill:#0277BD;" width="6.205" height="2.778"/>
						<rect x="367.536" y="224.199" style="fill:#0277BD;" width="6.205" height="2.778"/>
						<rect x="375.841" y="224.199" style="fill:#ECEFF1;" width="6.205" height="2.778"/>
					</g>
					<rect x="363.43" y="231.036" style="fill:#37474F;" width="14.416" height="1.919"/>
				</g>
			</g>
			<g>
				<path style="fill:#FF5252;" d="M78.421,370.885l15.91,53.37h84.998l15.91-53.37H78.421z M105.401,415.72
					c-3.607-12.101-7.215-24.201-10.822-36.302h5.947c3.1,12.101,6.199,24.201,9.299,36.302H105.401z M115.14,415.72
					c-2.49-12.101-4.979-24.201-7.469-36.302h5.947c1.982,12.101,3.964,24.201,5.946,36.302H115.14z M124.879,415.72
					c-1.372-12.101-2.743-24.201-4.115-36.302h5.947c0.864,12.101,1.728,24.201,2.592,36.302H124.879z M139.042,415.72h-4.424
					c-0.254-12.101-0.508-24.201-0.762-36.302h5.947C139.55,391.519,139.296,403.62,139.042,415.72z M148.781,415.72h-4.424
					c0.864-12.101,1.728-24.201,2.592-36.302h5.947C151.524,391.519,150.153,403.62,148.781,415.72z M154.096,415.72
					c1.982-12.101,3.964-24.201,5.945-36.302h5.947c-2.49,12.101-4.979,24.201-7.469,36.302H154.096z M168.259,415.72h-4.424
					c3.1-12.101,6.199-24.201,9.299-36.302h5.947C175.474,391.519,171.866,403.62,168.259,415.72z"/>
				<rect x="73.603" y="361.619" style="fill:#FF5252;" width="126.455" height="9.266"/>
				<rect x="73.603" y="368.846" style="fill:#C62828;" width="126.455" height="2.038"/>
				<g>
					<path style="fill:#FF5252;" d="M104.677,361.619c0,2.095-1.699,3.794-3.794,3.794c-2.095,0-3.794-1.699-3.794-3.794
						c0-2.095,1.699-3.794,3.794-3.794C102.978,357.825,104.677,359.524,104.677,361.619z"/>
					<path style="fill:#FF5252;" d="M176.572,361.619c0,2.095-1.699,3.794-3.794,3.794c-2.096,0-3.794-1.699-3.794-3.794
						c0-2.095,1.699-3.794,3.794-3.794C174.873,357.825,176.572,359.524,176.572,361.619z"/>
				</g>
				
					<line style="fill:none;stroke:#C62828;stroke-width:2.2237;stroke-linecap:round;stroke-miterlimit:10;" x1="100.883" y1="361.619" x2="62.391" y2="400.111"/>
				
					<line style="fill:none;stroke:#C62828;stroke-width:2.2237;stroke-linecap:round;stroke-miterlimit:10;" x1="210.693" y1="399.535" x2="172.778" y2="361.619"/>
			</g>
		</g>
	</g>
</g>
</svg>
